<svg width="30" height="30" viewBox="0 0 30 30" fill="none" xmlns="http://www.w3.org/2000/svg">
<path d="M13.5388 5.56339C14.3293 4.71758 15.6707 4.71758 16.4612 5.56339L17.5366 6.71408C17.9309 7.13594 18.4883 7.3668 19.0654 7.3473L20.6395 7.2941C21.7965 7.255 22.745 8.20346 22.7059 9.36051L22.6527 10.9346C22.6332 11.5117 22.8641 12.0691 23.2859 12.4634L24.4366 13.5388C25.2824 14.3293 25.2824 15.6707 24.4366 16.4612L23.2859 17.5366C22.8641 17.9309 22.6332 18.4883 22.6527 19.0654L22.7059 20.6395C22.745 21.7965 21.7965 22.745 20.6395 22.7059L19.0654 22.6527C18.4883 22.6332 17.9309 22.8641 17.5366 23.2859L16.4612 24.4366C15.6707 25.2824 14.3293 25.2824 13.5388 24.4366L12.4634 23.2859C12.0691 22.8641 11.5117 22.6332 10.9346 22.6527L9.36051 22.7059C8.20346 22.745 7.255 21.7965 7.2941 20.6395L7.3473 19.0654C7.3668 18.4883 7.13594 17.9309 6.71408 17.5366L5.56339 16.4612C4.71758 15.6707 4.71758 14.3293 5.56339 13.5388L6.71408 12.4634C7.13594 12.0691 7.3668 11.5117 7.3473 10.9346L7.2941 9.36051C7.255 8.20346 8.20346 7.255 9.36051 7.2941L10.9346 7.3473C11.5117 7.3668 12.0691 7.13594 12.4634 6.71408L13.5388 5.56339Z" stroke="#00285E" stroke-width="2" stroke-linecap="round" stroke-linejoin="round"/>
<path d="M17 7L7 17" stroke="#00285E" stroke-width="2" stroke-linecap="round" stroke-linejoin="round"/>
<path d="M15 5L5 15" stroke="#00285E" stroke-width="2" stroke-linecap="round" stroke-linejoin="round"/>
<path d="M20.5 7.5L7.5 20.5" stroke="#00285E" stroke-width="2" stroke-linecap="round" stroke-linejoin="round"/>
<path d="M22.5 9.5L9.5 22.5" stroke="#00285E" stroke-width="2" stroke-linecap="round" stroke-linejoin="round"/>
<path d="M23 13L13 23" stroke="#00285E" stroke-width="2" stroke-linecap="round" stroke-linejoin="round"/>
<path d="M25 15L15 25" stroke="#00285E" stroke-width="2" stroke-linecap="round" stroke-linejoin="round"/>
</svg>
