<?xml version="1.0" encoding="UTF-8"?><svg id="Capa_1" xmlns="http://www.w3.org/2000/svg" viewBox="0 0 1483.09 824.43"><defs><style>.cls-1{fill:#111;}</style></defs><path class="cls-1" d="M529.33,452.43v55.78l-172.73,.17-.34-191.88h55.78v136.1l117.28-.17Zm217.59-.17v55.78l-192.22,.34-.34-192.05,192.05-.34v55.78l-136.27,.17v12.43l136.44-.17v55.73l-136.44,.17v12.43l136.77-.29Zm272.54-136.35l.17,192.05h-55.78v-81.16l-43.69,81.83h-49.06l-44.02-81.66v81.32h-55.62v-192.05h59.48l64.69,120.34,64.35-120.47,59.48-.2Zm225.86,96.06c.09,52.99-42.79,96.02-95.77,96.11h-17.47c-53.03,.14-96.14-42.74-96.28-95.77-.14-53.03,42.74-96.14,95.77-96.28h17.47c53.01-.17,96.11,42.67,96.28,95.67,0,.09,0,.18,0,.27h0Zm-55.62,0c-.06-22.24-18.08-40.26-40.33-40.33h-17.31c-22.27,0-40.33,18.05-40.33,40.33s18.05,40.33,40.33,40.33h17.14c22.3,0,40.41-18.02,40.49-40.33Zm280.74,96.21h-63.35l-90.73-112.41,.17,112.58h-55.78l-.34-192.05h63.35l90.73,112.74-.34-112.74h55.78l.5,191.88ZM146.23,278.64c-73.77,0-133.58,59.81-133.58,133.58s59.81,133.58,133.58,133.58,133.58-59.81,133.58-133.58c-.06-73.75-59.83-133.52-133.58-133.58Zm70.07,139.8c-.85,.72-1.82,1.29-2.86,1.68-1.18,.49-2.43,.83-3.7,1.01-2.9,.45-5.86,.39-8.74-.17-6.55-1.36-12.8-3.86-18.48-7.39-5.93-3.67-11.5-7.89-16.63-12.6-2.46-2.35-4.98-4.87-7.56-7.56-2.35-2.52-4.87-5.38-7.06-8.23-.91-1.21-2.6-1.51-3.86-.67-1.37,.85-1.81,2.64-1.01,4.03,2.02,3.19,4.2,6.22,6.38,9.24s4.7,5.88,7.23,8.74c5.06,5.71,10.69,10.89,16.8,15.46,6.37,4.8,13.54,8.44,21.17,10.75,2.6,.68,5.23,1.19,7.9,1.51,1.08,.05,1.91,.96,1.86,2.03,0,.05,0,.1-.01,.15,0,.31-.13,.61-.34,.84-4.39,7.41-9.7,14.24-15.79,20.33-18.65,18.65-42.51,28.9-64.19,28.9-9.06,.15-18.03-1.8-26.21-5.71l-1.85-.84c-.63-.34-1.39-.34-2.02,0l-1.68,1.18c-2.74,1.82-5.95,2.82-9.24,2.86-2.76,.16-5.45-.89-7.39-2.86-3.53-3.53-3.7-10.25-.17-16.13l1.01-1.85c.34-.63,.34-1.39,0-2.02l-1.01-1.85c-9.24-17.47-8.57-40.49,.84-61.83,.45-1.02,1.65-1.47,2.66-1.02h.03c.48,.16,.86,.54,1.01,1.02,1.91,4.64,4.28,9.09,7.06,13.27,4.21,6.4,9.11,12.31,14.62,17.64,2.64,2.69,5.44,5.22,8.4,7.56,2.86,2.35,5.88,4.7,8.91,6.89,1.25,.97,3.06,.75,4.03-.5,.97-1.25,.75-3.06-.5-4.03-2.69-2.35-5.38-4.87-7.9-7.39s-4.87-5.21-7.23-7.9c-4.47-5.38-8.41-11.17-11.76-17.31-3.22-5.84-5.32-12.22-6.22-18.82-.5-2.89-.5-5.85,0-8.74,.32-1.15,.71-2.27,1.18-3.36l.67-1.01c1.94-2.36,4.02-4.6,6.22-6.72,27.39-27.56,65.53-36.63,92.41-22.18l2.02,1.01c.63,.34,1.39,.34,2.02,0l1.85-1.18c6.22-4.03,13.27-4.2,17.14-.34,3.86,3.86,3.7,11.26-.67,17.64l-1.34,1.68c-.39,.6-.45,1.36-.17,2.02l1.01,2.02c6.89,14.62,7.23,32.76,1.18,50.74h0Z"/></svg>