<?xml version="1.0" encoding="UTF-8"?><svg id="Capa_1" xmlns="http://www.w3.org/2000/svg" viewBox="0 0 3015.01 2234.83"><defs><style>.cls-1,.cls-2{fill:#111;}.cls-2{stroke:#111;stroke-miterlimit:33.33;stroke-width:107px;}</style></defs><path class="cls-1" d="M2565.95,1961.42c-116.92,0-186.25-59.83-191.56-146h111.79c0,28.73,15.92,66.96,85.09,69.34,47.93,0,74.46-28.72,74.46-50.31-5.31-33.48-47.93-35.86-90.39-43.18-47.93-6.95-85.08-16.65-111.79-28.54-37.14-19.21-58.55-60.01-58.55-103,0-76.67,64.03-136.5,175.65-136.5s175.65,55.08,180.76,138.88h-106.29c0-21.42-5.31-57.45-69.17-57.45-42.63,0-69.15,7.13-74.46,38.23,0,43.18,90.39,40.8,159.55,57.45,63.85,16.83,106.48,57.45,106.48,115.09,0,105.39-85.08,146-191.55,146M528.85,1254.36l367.03-213.15,196.86,337.76h-494.73"/><path class="cls-2" d="M1300.64,1948.71v-426.3"/><path class="cls-1" d="M358.51,1741.87c0,66.96,58.54,122.04,122.21,122.04,69.34,0,122.4-55.08,122.4-122.04s-53.06-122.04-122.4-122.04c-63.67,0-122.21,57.45-122.21,122.04m116.91,220.29c-116.92,0-217.91-98.25-217.91-220.29s101-217.91,217.91-217.91c47.93,0,90.56,12.08,127.7,38.23v-33.48h106.49v423.74h-106.48v-26.34c-31.83,23.97-79.77,36.04-127.7,36.04m1420.57-583.29l-510.65-890.66,367.02-215.53,638.36,1106.19m-1542.79,363c0,66.96,53.25,122.04,122.4,122.04,63.67,0,122.4-55.08,122.4-122.04s-58.73-122.04-122.4-122.04c-69.16,0-122.4,57.45-122.4,122.04m117.09,220.29c-122.4,0-218.09-98.25-218.09-220.29s95.69-217.91,218.09-217.91c47.75,0,90.39,12.08,127.71,38.23v-179.49h106.3v569.75h-106.31v-26.34c-37.33,23.97-79.95,36.04-127.71,36.04m-5.23-1088.48l372.33-210.59,409.66,715.75h-388.43v105.39h-106.31v-105.39m1441.5,108.7c-26.71,0-53.23-23.97-53.23-52.69s26.53-52.69,53.23-52.69c31.83,0,53.25,23.98,53.25,52.69s-21.42,52.7-53.25,52.7m0-98.07c-26.71,0-42.63,21.4-42.63,45.37s15.92,45.56,42.63,45.56,42.45-21.58,42.45-45.56-15.92-45.37-42.45-45.37"/><path class="cls-1" d="M2699.51,1463.76l-10.62-23.97h-10.61v23.97h-8.05v-57.45h23.97c5.31,0,15.92,7.33,15.92,16.83s-5.31,14.28-10.61,16.65l10.61,23.97m-21.23-50.13h-10.61v19.03h10.61c10.62,0,10.62-2.38,10.62-9.52,0-4.93,0-9.51-10.62-9.51m-702.94,328.23c0,66.96,53.25,122.04,122.4,122.04,63.85,0,122.22-55.08,122.22-122.04s-58.37-122.04-122.22-122.04c-69.16,0-122.4,57.45-122.4,122.04m116.92,220.29c-122.22,0-217.91-98.25-217.91-220.29s95.69-217.91,217.91-217.91c47.94,0,90.57,12.08,127.71,38.23v-33.48h101.18v423.74h-101.17v-26.34c-37.15,23.97-79.78,36.04-127.72,36.04m-605.96-220.29c0,66.96,58.54,122.04,122.39,122.04,69.17,0,122.4-55.08,122.4-122.04s-53.24-122.04-122.4-122.04c-63.85,0-122.39,57.45-122.39,122.04m244.8-359.16h106.3v569.75h-106.3v-26.34c-32.02,23.97-74.64,36.04-122.4,36.04-122.39,0-223.4-98.25-223.4-220.29s101-217.91,223.4-217.91c47.75,0,90.39,12.08,122.4,38.23v-179.49Z"/></svg>