<?xml version="1.0" encoding="UTF-8"?><svg id="Capa_1" xmlns="http://www.w3.org/2000/svg" viewBox="0 0 3015.01 949.79"><defs><style>.cls-1{fill:#111;}</style></defs><path class="cls-1" d="M727.43,754.5c-.55-1.26-1.61-2.53-1.57-3.77,.14-4.79,.56-9.57,1-14.34,.23-2.47,1.53-4.09,3.94-5.19,26.63-12.14,50.89-27.87,72.41-47.77,22.89-21.17,41.66-45.46,56.19-73.04,13.69-25.98,22.96-53.46,27.46-82.44,1.69-10.89,2.61-21.95,3.12-32.97,1.9-41.53-6.17-81.22-23.03-119.15-11.61-26.12-27.13-49.72-46.31-70.95-23.05-25.51-50.04-45.79-80.83-60.99-27.91-13.78-57.36-22.42-88.35-25.93-15.17-1.72-30.36-2.21-45.54-1.36-33.76,1.89-66.07,9.84-96.85,23.94-25.02,11.47-47.83,26.34-68.27,44.72-23.89,21.49-43.32,46.5-58.33,74.95-13.49,25.56-22.78,52.55-27.28,81.05-1.93,12.2-3,24.6-3.49,36.95-.87,22.12,3.15,43.8,7.48,65.36,2.86,14.24,6.39,28.36,12.6,41.55,2.96,6.29,6.72,12.33,10.92,17.88,5.42,7.15,13.01,8.63,21.74,6.84,17.28-3.54,33.68-9.59,49.49-17.13,17.61-8.4,34.86-17.58,52.26-26.43,.32-.16,.59-.41,1.3-.9-5.15-1.42-9.93-2.63-14.64-4.05-19.2-5.83-37.34-13.84-53.01-26.64-12.27-10.03-22-22.03-27.38-37.15-2.2-6.19-3.61-12.56-3.28-19.19,.09-1.75,.52-3.47,.84-5.55,5.69,2.27,10.82,4.39,16.01,6.36,17.12,6.48,34.48,12.08,52.74,14.37,8.82,1.1,17.64,1.31,26.44-.23,.38-.07,.75-.16,1.11-.29,.15-.06,.24-.26,.55-.61-31.98-16.28-58.23-38.38-72.91-72.01-3.33-7.62-6.21-15.47-7.02-24.57,1.5,.68,2.44,1.04,3.32,1.52,20.23,10.98,41.1,20.55,63.02,27.66,17.36,5.63,35.06,9.55,53.47,9.12,2.59-.06,5.17-.36,7.86-.85-23.22-4.52-44.81-12.5-61.17-30.36-16.09-17.56-31.49-50.32-29.48-62.05,1.64,1.14,3.21,1.96,4.46,3.12,13.32,12.29,27.91,22.68,44.72,29.67,17.11,7.11,34.69,10.05,52.98,5.15,11.09-2.97,20.76-8.56,29.21-16.27,13.98-12.74,22.94-28.74,29.75-46.1,2.05-5.24,1.96-5.27,6.28-1.54,14.03,12.09,24.73,26.84,33.83,42.79,2.38,4.18,4.57,6.31,10.03,5.78,12.03-1.18,23.88,.72,34.75,6.31,4.91,2.52,9.28,6.09,13.88,9.21,.77,.52,1.43,1.19,2.67,2.24,2.84-5.64,5.67-10.84,8.12-16.22,6.26-13.78,10.38-28.28,14.3-42.84,.17-.65,.34-1.3,.55-1.94,.85-2.48,2.42-3.03,4.25-1.22,15.08,14.94,26.89,31.74,29.1,53.6,1.38,13.69-.79,27.05-5.17,40.03-2.15,6.37-4.57,12.66-7.07,18.9-.78,1.95-.83,3.39,.27,5.29,5.77,10.05,10.54,20.48,11.78,32.22,.89,8.41,.86,16.76-1.96,24.79-4.04,11.55-5.67,23.53-6.8,35.58-1.06,11.27-1.81,22.59-2.26,33.9-.4,10.05,1.03,19.71,5.61,29.06,6.6,13.45,5.26,27.03-1.86,40.1-1.93,3.54-3.76,7.15-5.86,10.58-1.66,2.72-3.24,2.98-6.1,1.55-5.14-2.55-10.02-11.17-9.43-16.82,.11-1.02,.38-2.14,.92-2.99,5.68-8.84,6.18-18.08,1.66-27.39-3.28-6.75-4.49-13.84-4.93-21.15-1.54-25.65,.41-51.07,5.4-76.26,.61-3.1,1.28-6.25,2.45-9.17,4.75-11.84,2.88-23.25-2.25-34.32-2.49-5.39-5.54-10.56-8.77-15.55-2.2-3.4-2.03-6.45-.25-9.7,7.87-14.42,12.96-29.76,14.75-46.09,1.11-10.12,.94-20.2-3.68-29.67-.45-.92-1-1.79-1.89-3.37-1.69,4.87-3.2,9.03-4.59,13.23-5.04,15.19-10.81,30.04-20.47,43.03-1.92,2.58-4.02,5.04-6.3,7.9-1.03-1.32-1.77-2.16-2.38-3.08-4.78-7.22-9.22-14.71-16.14-20.21-9.15-7.27-19.76-9.57-31.16-8.55-5.05,.45-10.05,1.48-15.07,2.28-1.68,.27-2.93-.03-3.86-1.66-5.77-9.98-11.6-19.92-17.43-29.86-1.16-1.97-2.38-3.91-3.8-6.23-2.19,3.22-4.08,6.18-6.15,9.02-14.83,20.2-33.54,35.23-57.99,42.01-21.48,5.95-42.29,4.39-61.75-7.42-.32-.2-.68-.35-1.02-.5-.06-.03-.16,.05-.8,.29,2.09,1.66,3.89,3.22,5.83,4.6,12.4,8.82,26.26,14.54,40.89,18.17,15.65,3.89,31.48,7.08,47.28,10.36,3.89,.81,4.46,1.96,2.92,5.56-.84,1.97-2.69,3.76-4.5,5.03-14.04,9.81-29.8,14.99-46.74,16.67-29.31,2.91-57.04-2.66-83.29-15.87-1.26-.63-2.5-1.31-3.76-1.96l-.52,.61c4.41,4.45,8.65,9.08,13.26,13.31,20.17,18.49,44.42,28.14,71.13,32.3,6.64,1.03,13.33,1.8,19.98,2.8,.92,.14,1.75,.9,2.63,1.37-.47,.8-.76,1.79-1.42,2.36-16.57,14.15-34.99,24.65-56.69,28.68-23.3,4.32-45.74,.96-67.59-7.57-3.71-1.45-7.37-3.06-11.05-4.59l-.55,.8c6.51,5.35,12.79,11.02,19.58,15.99,17.1,12.51,36.31,19.59,57.52,20.79,17.46,.99,34.54-1.66,51.4-5.99,4.75-1.22,9.52-2.31,14.29-3.46,.37-.09,.77-.29,1.12-.23,1.54,.27,3.08,.63,4.61,.95-.63,1.43-.88,3.28-1.94,4.22-6.49,5.7-13.02,11.39-19.81,16.73-25.13,19.75-51.1,38.31-79.08,53.88-19.48,10.84-39.62,20.12-61.52,25.04-9.24,2.08-18.6,3.11-28.08,2.53-8.08-.49-14.68-4.25-20.44-9.64-10.22-9.56-16.48-21.68-21.75-34.35-8.69-20.88-13.84-42.73-17.46-64.98-2.74-16.82-4.53-33.72-4.03-50.79,.75-25.49,4.82-50.46,12.28-74.83,10.96-35.81,28.18-68.33,51.76-97.46,22.07-27.26,48.08-49.99,78.29-67.88,33.1-19.61,68.73-32.13,106.81-37.42,11.39-1.58,22.96-2.16,34.47-2.61,31.22-1.22,61.76,3.22,91.6,12.3,38.82,11.81,73.56,31.07,104.32,57.5,23.68,20.35,43.65,43.86,59.74,70.6,18.85,31.3,31.3,64.98,37.36,101.04,3.23,19.22,4.58,38.58,3.91,58.02-1,29.17-6.19,57.61-15.8,85.23-12.3,35.37-30.67,67.21-55.25,95.48-26.49,30.47-57.9,54.48-94.38,71.84-5.27,2.51-10.71,4.69-16.07,7.02h-2.31Z"/><path class="cls-1" d="M2684.4,327.93c-1.05,6.42-1.48,13.01-3.24,19.22-6.84,24.19-22.84,39.44-47.16,45.32-9.45,2.28-19.33,3.4-29.07,3.74-16.84,.59-33.73,.17-50.59,.16-.67,0-1.34-.09-2.19-.15V250.49h2.94c16.19,0,32.38-.14,48.57,.04,13.22,.15,26.33,1.44,38.78,6.35,23.31,9.19,36.78,26.3,40.77,50.95,.52,3.21,.8,6.46,1.19,9.68v10.4Zm-99.37,39.33c7.25,0,14.37,.32,21.45-.1,5.91-.34,11.93-.94,17.61-2.49,10.95-3.01,19.03-9.84,23.54-20.45,4.02-9.47,4.6-19.4,3.19-29.43-2.3-16.35-10.68-27.94-26.99-32.84-12.57-3.78-25.51-2.93-38.39-2.72-.14,0-.28,.23-.41,.35v87.69Z"/><path class="cls-1" d="M636.78,413.63c15.73,17.31,20.54,38.33,10.38,59.7-1.32,2.77-2.59,5.64-4.39,8.1-6.72,9.18-4.28,23.79,5.41,30.93,5.26,3.87,10.89,7.24,16.33,10.86,8.23,5.47,13.7,12.58,14.92,22.81,1.27,10.66,3.24,21.23,4.84,31.86,.58,3.88,1.44,7.81,1.26,11.67-.1,2.31-1.34,5.5-3.13,6.65-9.7,6.24-10.28,14.51-5.33,23.78,4.48,8.38,9.82,16.29,14.67,24.47,2,3.38,4.43,6.76,5.38,10.47,2.35,9.13,17.06,17.99,26.44,18.01,10.08,.01,18.94-3.37,26.88-9.1,38.72-27.97,65.88-64.68,82.2-109.46,7.32-20.08,11.61-40.84,12.82-62.16,2.1-37.05-4.63-72.5-20.07-106.25-10.37-22.66-24.21-42.99-41.41-61.07-24.78-26.04-54.05-45.1-87.89-57.25-19.78-7.1-40.16-11.29-61.1-12.55-38.16-2.29-74.64,4.58-109.31,20.79-20.81,9.73-39.69,22.35-56.56,37.94-37.36,34.53-60.61,76.8-69.74,126.82-2.96,16.23-3.96,32.63-3.22,49.09,.79,17.62,3.63,34.96,8.22,51.98,.76,2.82,.6,5.19-.86,7.68-1.53,2.61-2.83,5.36-4.23,8.04-.31,0-.62,.01-.93,.02-.76-1.56-1.67-3.07-2.27-4.69-4.09-11.04-7.01-22.42-8.42-34.07-1.62-13.43-3.3-26.93-3.59-40.43-.37-17.31,1.84-34.51,5.74-51.43,6.59-28.58,17.76-55.24,34.41-79.41,35.9-52.1,84.69-85.38,146.57-99.24,20.39-4.57,41.09-6.16,61.92-5.08,32.15,1.67,62.83,9.33,91.83,23.5,21.78,10.64,41.45,24.23,59.09,40.85,20.24,19.06,36.55,41.03,49.04,65.8,13.06,25.91,21.1,53.34,23.88,82.24,5.29,54.91-7.45,105.49-36.79,152.03-11.4,18.09-25.04,34.36-40.9,48.69-9.84,8.89-19.73,17.86-32.01,23.39-17.37,7.81-34.14,7.73-49.56-4.84-4.88-3.98-8.38-8.82-11.11-14.72-3.86-8.31-9.31-15.88-13.91-23.86-3.07-5.32-6.3-10.62-8.63-16.27-3.49-8.47-4.04-17.1,2.24-24.78,1.93-2.36,4.35-4.35,6.66-6.36,1.38-1.21,1.81-2.25,1.29-4.2-3.25-12.27-5.57-24.72-6.52-37.4-.37-4.91-2.73-8.87-6.64-11.65-5.71-4.07-11.7-7.75-17.51-11.67-6.87-4.63-12.49-10.39-14.69-18.61-2.64-9.87-2.32-19.41,3.09-28.63,3.18-5.42,5.94-11.26,7.76-17.26,2.8-9.23,1.32-18.39-3.67-26.64-3.18-5.25-2.64-10.19-.47-15.39,.48-1.14,.97-2.27,1.57-3.69Z"/><path class="cls-1" d="M1103.2,396.17v-89.25l-.54-.1c-.49,.89-1,1.75-1.45,2.66-11.93,24.02-23.89,48.04-35.73,72.11-1.01,2.06-2.14,2.79-4.38,2.71-4.43-.17-8.88-.22-13.3,.01-2.54,.13-3.68-.86-4.75-3.05-11.77-24.1-23.66-48.15-35.52-72.21-.42-.84-.86-1.67-1.74-2.45v89.53h-32.48V250.74h43.83c12.33,26.28,24.73,52.7,37.32,79.51,12.67-26.86,25.13-53.26,37.56-79.6h43.88v145.53h-32.7Z"/><path class="cls-1" d="M1358.86,305.75v90.39h-32.5V250.66c.75-.05,1.58-.16,2.41-.16,8.48-.01,16.97,.03,25.45-.04,1.68-.01,2.74,.43,3.82,1.85,20.89,27.47,41.85,54.89,62.8,82.31,2.18,2.86,4.37,5.71,7.03,9.19v-93.09h32.54v145.46c-1.1,.07-2.03,.18-2.96,.18-8.97,.01-17.93-.03-26.9,.04-1.8,.02-2.98-.49-4.11-1.98-21.72-28.65-43.5-57.26-65.27-85.87-.56-.74-1.18-1.44-2.31-2.81Z"/><path class="cls-1" d="M2010.06,592.9v-145.74c1.03-.05,1.96-.13,2.9-.13,16.09,0,32.19-.15,48.28,.04,13.79,.16,27.43,1.53,40.37,6.88,22.66,9.37,35.76,26.38,39.43,50.38,2.36,15.46,1.72,30.91-4.05,45.72-7.8,20.03-22.41,32.64-42.97,38.55-10.99,3.16-22.27,4.21-33.64,4.28-15.51,.1-31.03,.02-46.54,.02h-3.78Zm32.65-29.12c3.04,0,5.92,.1,8.78-.02,8.44-.33,17.01,.04,25.3-1.31,14.01-2.27,24.37-9.95,29.51-23.68,2.57-6.87,2.91-14.03,2.88-21.28-.1-21.68-12.18-36.92-33.56-40.28-10.55-1.66-21.45-1.11-32.2-1.54-.24,0-.48,.26-.71,.39v87.72Z"/><path class="cls-1" d="M2245.24,396.2V250.49h2.76c16.29,0,32.58-.16,48.86,.05,14.48,.19,28.77,1.78,42.2,7.86,19.18,8.68,31.43,23.19,35.96,43.72,4.01,18.21,3.45,36.34-3.91,53.75-7.74,18.33-21.59,29.96-40.54,35.75-10.76,3.29-21.82,4.57-32.99,4.7-16.57,.19-33.15,.05-49.73,.04-.76,0-1.51-.09-2.62-.16Zm32.58-28.95c7.64,0,14.96,.13,22.27-.05,4.02-.1,8.08-.42,12.03-1.17,17.55-3.33,28.9-15.02,31.5-32.33,1.12-7.46,1.13-14.95-.42-22.38-3.21-15.44-12.24-25.48-27.57-29.71-12.27-3.39-24.8-2.52-37.29-2.45-.15,0-.31,.2-.52,.35v87.74Z"/><path class="cls-1" d="M973.18,592.71v-145.69h2.94c16.1,0,32.2-.15,48.3,.04,15.2,.18,30.2,1.85,44.11,8.59,21.88,10.6,33.32,28.56,36,52.35,1.63,14.41,.66,28.65-4.68,42.29-8.15,20.83-23.63,33.29-45.02,38.89-9.65,2.52-19.49,3.57-29.41,3.68-16.48,.17-32.97,.05-49.46,.04-.84,0-1.69-.11-2.79-.19Zm32.58-29.51c10.41,0,20.58,.82,30.57-.19,15.65-1.58,27.67-9.23,33.09-24.77,3.74-10.7,3.79-21.71,1.07-32.69-3.49-14.11-12.27-23.44-26.29-27.09-6.72-1.75-13.82-2.27-20.79-2.81-5.82-.44-11.7-.09-17.66-.09v87.63Z"/><path class="cls-1" d="M1588.84,518.5c-.49,30.78-14.17,53.07-40.51,67.54-9.55,5.25-20.07,7.48-30.99,8.08-15.85,.88-30.94-1.7-44.61-9.97-23.03-13.93-35.78-34.18-36.95-61.39-.75-17.46,3.04-33.64,13.59-47.75,13.93-18.65,32.5-29.21,55.92-30.89,18.41-1.32,35.69,2.05,51,12.75,19.31,13.49,30.44,31.87,32.15,55.6,.16,2.2,.29,4.4,.39,6.03Zm-33.48,.76c.13-9.34-2.17-17.93-6.98-25.86-14.51-23.94-46.07-28.22-65.2-9-19.42,19.52-18.41,53.39,1.98,71.18,11.66,10.17,29.87,13.5,43.68,6.75,17.86-8.74,25.91-23.68,26.52-43.07Z"/><path class="cls-1" d="M2313.29,518.85c.21,21.13-6.85,39.08-21.75,53.72-13.72,13.47-30.29,20.54-49.58,21.54-20.85,1.08-39.58-4.07-55.63-17.76-14.94-12.74-23.66-28.8-25.57-48.41-2.07-21.29,2.48-40.78,16.65-57.28,17.29-20.14,39.57-28.36,65.82-26.57,25.14,1.72,44.57,13.36,58.58,34.05,8.34,12.32,11.68,26.19,11.48,40.71Zm-119.47-2.5c-.01,14.72,3.81,25.44,11.62,34.88,13.92,16.83,40.27,19.53,57.05,5.66,19.75-16.32,23.49-46.03,8.4-66.73-13.27-18.2-36.49-23.47-55.2-11.79-14.74,9.2-21.45,23.32-21.86,37.98Z"/><path class="cls-1" d="M1131.97,592.66v-145.45h104.94v29.2h-72.3v29.62h65v27.88h-64.98v29.85h74.54v28.9h-107.2Z"/><path class="cls-1" d="M1984.8,250.49c20.98,48.51,41.92,96.94,63.08,145.88-2.36,0-4.17,0-5.97,0-8.68,0-17.35-.12-26.03,.07-2.4,.05-3.38-.89-4.21-2.87-3.73-8.85-7.63-17.63-11.29-26.51-.73-1.76-1.63-2.21-3.39-2.2-18.6,.06-37.21,.07-55.81-.01-1.94,0-2.85,.56-3.6,2.36-3.77,9.04-7.67,18.02-11.63,26.98-.39,.88-1.47,2.06-2.24,2.07-10.97,.14-21.95,.09-33.41,.09,.9-2.25,1.62-4.17,2.43-6.05,19.75-45.66,39.52-91.31,59.19-137.01,.97-2.24,2.12-2.9,4.45-2.87,9.44,.13,18.88,.05,28.43,.05Zm-15.69,43.95c-6.16,14.2-12.02,27.71-17.98,41.46h35.75c-5.91-13.78-11.71-27.32-17.77-41.46Z"/><path class="cls-1" d="M1993.79,592.9c-9.22,0-17.98,0-26.74,0q-8.21,0-11.42-7.65c-3.04-7.16-6.17-14.28-9.16-21.46-.71-1.7-1.51-2.44-3.54-2.43-18.61,.1-37.21,.11-55.82,0-2.05-.01-2.83,.8-3.53,2.46-3.78,8.93-7.66,17.82-11.46,26.75-.6,1.42-1.17,2.4-3.05,2.38-10.41-.1-20.82-.05-31.24-.07-.38,0-.75-.1-1.53-.21,2.52-5.84,4.97-11.53,7.43-17.21,14.51-33.6,29.02-67.19,43.54-100.78,3.7-8.55,7.45-17.08,11.09-25.66,.62-1.45,1.34-2.04,2.96-2.03,9.16,.08,18.32,.08,27.48,0,1.65-.01,2.32,.63,2.94,2.06,15.46,35.9,30.97,71.78,46.48,107.66,4.57,10.58,9.18,21.15,13.77,31.72,.57,1.31,1.08,2.64,1.82,4.48Zm-96.67-60.44h35.8c-5.9-13.77-11.7-27.29-17.78-41.48-6.13,14.1-11.99,27.6-18.02,41.48Z"/><path class="cls-1" d="M2378.43,396.13c3.4-7.89,6.65-15.46,9.92-23.03,14.44-33.41,28.89-66.81,43.33-100.22,2.94-6.79,5.91-13.56,8.75-20.39,.67-1.61,1.59-2.05,3.25-2.03,8.87,.08,17.74,.11,26.61-.02,2.07-.03,2.99,.68,3.78,2.52,9.31,21.72,18.69,43.4,28.07,65.08,10.83,25.04,21.66,50.07,32.49,75.1,.37,.87,.72,1.75,1.23,3-1.14,.09-2.03,.23-2.92,.23-9.74,.01-19.47-.04-29.21,.05-1.92,.02-2.89-.54-3.66-2.37-3.78-9.04-7.78-17.98-11.56-27.02-.72-1.73-1.62-2.18-3.4-2.17-18.6,.07-37.21,.07-55.82,0-1.95,0-2.84,.58-3.59,2.4-3.71,8.96-7.61,17.84-11.44,26.75-.58,1.35-1.08,2.43-3,2.41-10.41-.11-20.82-.06-31.23-.07-.37,0-.75-.1-1.6-.23Zm78.82-101.67c-6.12,14.12-11.99,27.67-17.98,41.5h35.78c-5.9-13.77-11.73-27.35-17.8-41.5Z"/><path class="cls-1" d="M1811.78,355.65v40.44h-32.51V250.63c1.01-.05,1.94-.13,2.88-.13,16.2,0,32.39-.16,48.58,.04,11.75,.15,23.43,1.07,34.66,5.11,17.44,6.27,26.37,19.16,28.75,37,1.36,10.18,1.12,20.37-1.76,30.31-4.65,16.08-16.09,24.95-31.68,29.25-8.87,2.45-17.92,3.44-27.1,3.43-7.13,0-14.25,0-21.81,0Zm.1-28.85c10.37,0,20.4,.51,30.36-.14,10.34-.67,15.71-5.95,18.13-16.02,.38-1.58,.67-3.21,.78-4.82,1.01-14.5-3.42-23.82-18.82-25.85-9.48-1.25-19.18-.85-28.79-1.17-.53-.02-1.07,.13-1.66,.2v47.81Z"/><path class="cls-1" d="M1168.56,250.64h32.61v3.51c0,25.43-.05,50.86,.03,76.28,.03,8.43,1.18,16.7,5.52,24.17,5.64,9.71,14.3,14.36,25.36,14.04,12.75-.38,21.38-7.2,25.54-18.98,1.91-5.42,2.98-11.41,3.05-17.16,.31-26.1,.14-52.2,.14-78.3v-3.54h32.61v3.46c0,27.45,.19,54.9-.08,82.35-.14,14.73-3.78,28.59-13.51,40.17-11.22,13.34-25.87,19.79-43.11,20.94-10.61,.71-20.97-.27-30.86-4.24-20.12-8.07-31.98-23.05-35.79-44.25-1.03-5.73-1.41-11.65-1.45-17.49-.15-25.72-.06-51.43-.06-77.15v-3.8Z"/><path class="cls-1" d="M1602.22,568.81c6.54-8.02,12.95-15.87,19.44-23.84,3.78,2.9,7.25,5.75,10.92,8.33,8.75,6.17,18.14,10.93,28.98,12.04,5.42,.56,10.78,.23,15.74-2.43,8.97-4.81,9.89-16.74,1.15-21.88-5.29-3.11-11.43-5.02-17.4-6.69-10.74-3.01-21.49-5.79-31.59-10.78-13.41-6.63-19.94-17.32-20.74-32.07-.48-8.92,.39-17.5,4.89-25.34,6.05-10.56,15.8-16.42,27.11-19.62,17.97-5.09,35.64-3.01,52.84,3.64,4.81,1.86,9.35,4.45,13.86,7,2.82,1.59,5.35,3.71,8.22,5.74-5.63,8.12-11.09,15.99-16.58,23.92-3.84-2.37-7.47-4.88-11.34-6.93-10.23-5.42-21.09-8.42-32.76-6.86-8.55,1.14-13.8,7.98-12.37,15.71,.95,5.11,4.63,8.01,9.13,9.56,7.62,2.62,15.36,4.9,23.12,7.04,8.76,2.42,17.21,5.41,25.04,10.14,11.71,7.07,17.38,17.53,18.14,30.92,.65,11.55-1.6,22.22-9.58,31.1-7.84,8.71-17.71,13.83-29.17,15.69-27.31,4.44-51.4-2.83-72.54-20.42-1.46-1.21-2.85-2.51-4.49-3.97Z"/><path class="cls-1" d="M1668.69,348.37c7.05,7.28,13.92,14.37,20.94,21.62-12.88,14.48-28.1,24.67-47.41,27.13-23.06,2.93-44.51-1.39-62.75-16.77-15.3-12.9-23.76-29.45-25.36-49.4-1.11-13.8,.1-27.34,6.24-39.97,11.61-23.89,30.55-38.51,56.84-42.67,20.47-3.24,39.95,.17,57.26,12.17,5.72,3.97,10.75,8.93,16.41,13.7-7.18,8.15-13.88,15.76-20.81,23.63-10.57-13.03-23.86-19.95-40.52-19.28-13.04,.52-24,5.82-32.61,15.66-13.27,15.16-13.27,47.05,4.93,63.02,16.39,14.4,47.78,14.8,66.83-8.85Z"/><path class="cls-1" d="M1732.43,475.65v-28.45h114.66v28.37h-40.89v117.16h-32.77v-117.09h-41Z"/><path class="cls-1" d="M1425.98,475.54h-41.06v117.1h-32.62v-117.06h-41.21v-28.37h114.89v28.33Z"/><path class="cls-1" d="M2064.24,250.66h32.38v116.58h61.99v28.91h-94.37V250.66Z"/><path class="cls-1" d="M1495,396.23V250.66h32.25v145.57h-32.25Z"/><path class="cls-1" d="M1712.18,396.18V250.7h32.27v145.48h-32.27Z"/><path class="cls-1" d="M2210.73,396.19h-32.47V250.66h32.47v145.53Z"/><path class="cls-1" d="M2141.48,716.94h-16.83v-46.19l-.66-.26c-.46,.82-.95,1.62-1.37,2.47-5.81,11.71-11.66,23.41-17.39,35.16-.91,1.88-2.02,2.41-4.11,2.7-5.82,.8-8.82-1.4-11.17-6.86-4.59-10.67-10.1-20.94-15.23-31.37-.41-.83-.88-1.63-1.82-2.36v46.64h-17.08v-76.75c2.3,0,4.57,0,6.84,0s4.63-.02,6.94,0c3.08,.04,6.97-1.01,9.01,.47,2.41,1.74,3.27,5.66,4.7,8.69,4.76,10.07,9.47,20.17,14.22,30.25,.32,.67,.73,1.3,1.3,2.32,2.43-5.06,4.73-9.79,6.97-14.55,4.01-8.52,7.94-17.07,12.02-25.56,.36-.74,1.52-1.53,2.32-1.55,7.03-.12,14.06-.07,21.33-.07v76.81Z"/><path class="cls-1" d="M2472.6,670.33v46.46h-16.96v-76.67c5.21,0,10.54,.52,15.72-.14,5.97-.76,8.45,1.77,10.64,6.98,4.72,11.24,10.24,22.14,15.44,33.18,.24,.51,.57,.98,1.04,1.76,3.41-7.19,6.69-14.11,9.97-21.03,3-6.34,5.94-12.7,9.02-19,.37-.76,1.42-1.66,2.17-1.67,7.12-.13,14.25-.08,21.59-.08v76.73h-16.99v-46.62l-.59-.12c-2.7,5.37-5.42,10.73-8.09,16.11-3.77,7.58-7.44,15.21-11.31,22.73-.43,.84-1.82,1.53-2.85,1.67-1.99,.26-4.05-.03-6.06,.11-1.71,.12-2.56-.59-3.29-2.09-6.06-12.45-12.19-24.85-18.31-37.27-.2-.4-.44-.78-.66-1.17l-.47,.12Z"/><path class="cls-1" d="M1855.26,711.01c2.98,3.56,5.86,7,8.82,10.54-5.37,5.84-11.82,9.11-19.49,9.84-11.18,1.07-20.19-2.61-26.45-12.28-.49-.76-1.8-1.35-2.77-1.4-16.91-.97-29.32-9.05-35.36-24.74-5.97-15.52-3.65-30.5,8.38-42.69,11.85-12.02,26.62-14.66,42.34-9.8,15.05,4.65,24.32,15.36,26.74,30.97,2.58,16.66-3.66,33.31-21.45,42.43,3.41,6.26,12.09,5.11,19.24-2.86Zm-38.56-57.61c-1.08,.2-3.11,.39-5.02,.95-14.75,4.32-21.63,23.4-13.34,36.87,7.7,12.52,23.1,15.48,33.33,6.4,8.78-7.78,11.38-20.23,6.2-30.77-4.09-8.33-10.69-13.14-21.17-13.45Z"/><path class="cls-1" d="M1402.99,669.39v47.47h-17v-76.68c5.07,0,10.23-.09,15.38,.1,.75,.03,1.55,1.3,2.17,2.11,11.33,14.82,22.64,29.65,33.94,44.49,.39,.52,.68,1.11,1.01,1.67l.77-.45v-47.73h17.36v76.68c-5.5,0-10.87,.09-16.24-.09-.87-.03-1.88-1.14-2.52-1.98-10.98-14.36-21.91-28.75-32.86-43.14-.46-.6-.96-1.17-2.01-2.45Z"/><path class="cls-1" d="M1630.51,688.99v-48.67h17.23v76.68c-5.6,0-11.14,.08-16.67-.1-.76-.02-1.57-1.29-2.19-2.1-10.95-14.37-21.88-28.75-32.82-43.13-.39-.52-.86-.98-1.81-2.04v47.19h-16.93v-76.67c5.02,0,10-.09,14.97,.09,.78,.03,1.66,1.14,2.26,1.92,11.46,14.94,22.88,29.92,34.32,44.88,.33,.43,.7,.83,1.64,1.95Z"/><path class="cls-1" d="M1666.9,716.83v-76.38c.42-.13,.69-.29,.95-.29,12.51,.17,25.04,.11,37.54,.67,4.11,.18,8.33,1.53,12.18,3.11,6.77,2.78,9.92,8.6,10.94,15.53,.83,5.64,.8,11.33-1.01,16.85-2.08,6.34-6.43,10.58-12.93,13.32,6.42,9.09,12.69,17.98,19.37,27.43-5.06,0-9.6-.48-13.99,.12-5.72,.78-8.97-1.59-11.77-6.24-3.42-5.67-7.49-10.94-11.2-16.44-.96-1.43-2.03-2.05-3.79-1.97-2.97,.14-5.96,.04-9.31,.04v24.25h-16.98Zm17.04-39.35c5.62,0,10.92,.2,16.19-.04,10.2-.46,12.36-7.47,10.85-15.34-.6-3.1-2.46-5.16-5.53-6.02-7.08-1.98-14.25-.7-21.51-1.13v22.53Z"/><path class="cls-1" d="M1331.1,717.65c-20.35,.98-40.61-15.31-40.37-39.75,.23-22.87,17.53-39.49,41.08-39.51,22.31-.02,40.46,18.17,39.81,41.08-.59,21.01-18.68,39.26-40.51,38.18Zm23.49-39.55c-.99-3.68-1.54-7.54-3.04-11-5.53-12.8-21.07-17.62-32.1-10.19-11.46,7.72-14.58,24.37-6.61,35.78,4.66,6.67,11.05,10.51,19.29,10.1,14.02-.69,22.08-13.35,22.46-24.69Z"/><path class="cls-1" d="M1103.8,671.27v14.42c-1.15,.06-2.26,.15-3.37,.16-9.35,.01-18.7,.07-28.05-.04-2.27-.03-3.08,.64-2.96,2.95,.17,3.36,.17,6.75,0,10.11-.12,2.31,.71,2.96,2.97,2.94,10.8-.1,21.59-.04,32.39-.04,1.15,0,2.3,0,3.74,0v15.02h-56.28v-76.51h55.17v15.21h-37.7v15.79h34.11Z"/><path class="cls-1" d="M1560.9,716.9h-56.34v-76.56h55.23v15.2h-37.77v15.7h34.07v14.61c-1.16,0-2.28,0-3.4,0-9.35,0-18.7,.08-28.05-.05-2.43-.04-2.94,.91-2.86,3.05,.13,3.27,.16,6.56,0,9.82-.12,2.36,.61,3.17,3.06,3.14,10.8-.12,21.59-.05,32.39-.05,1.14,0,2.28,0,3.67,0v15.14Z"/><path class="cls-1" d="M2006.26,671.28v14.5h-33.86v15.88h38.94v15.14h-56.29v-76.51h55.14v15.18h-37.76v15.82h33.84Z"/><path class="cls-1" d="M2383.26,640.28h55.07v15.24h-37.81v15.68h33.85v14.59h-33.87v15.94h38.98v15.16h-56.22v-76.61Z"/><path class="cls-1" d="M2229.87,717.06c3.48-8.15,6.69-15.74,9.96-23.31,7.36-17.01,14.78-34,22.07-51.04,.85-1.98,1.82-2.73,4.01-2.64,4.52,.19,9.05,.06,13.88,.06,11.01,25.46,22.04,50.97,33.26,76.92-6.04,0-11.68,.06-17.32-.08-.64-.02-1.49-1.05-1.84-1.79-1.89-4.1-3.75-8.21-5.42-12.41-.71-1.79-1.63-2.51-3.6-2.49-8.96,.09-17.93,.09-26.89,0-1.97-.02-2.86,.69-3.57,2.5-1.64,4.21-3.49,8.33-5.4,12.42-.37,.79-1.41,1.77-2.17,1.79-5.47,.15-10.96,.08-16.98,.08Zm41.62-53.71c-3.3,7.61-6.31,14.56-9.42,21.73h18.72c-3.07-7.17-6.03-14.08-9.3-21.73Z"/><path class="cls-1" d="M1033.64,649.47c-2.98,4.29-5.87,8.44-8.59,12.35-3.86-2.16-7.23-4.73-11.02-6.05-17.43-6.06-33.51,7.62-31.28,25.93,1.88,15.38,15.62,25.26,33.57,18.61,2.09-.77,2.89-1.93,2.81-4.26-.2-5.96-.07-11.93-.07-18.12h17.23c.06,.94,.18,1.86,.18,2.79,.02,7.32,.11,14.65-.08,21.96-.04,1.52-.84,3.34-1.89,4.44-5.53,5.77-12.55,8.7-20.32,10.01-11.38,1.92-22.3,.86-32.08-5.77-11.22-7.6-16.83-18.21-17.11-31.88-.3-14.32,5.2-25.56,16.69-33.94,14.88-10.86,38.78-9.14,51.98,3.94Z"/><path class="cls-1" d="M1919.73,640.24h17.04c.06,.93,.16,1.77,.16,2.6,0,14.45,.21,28.9-.06,43.35-.19,10.61-4.02,19.66-13.05,26-12.7,8.92-38.89,8.43-48.71-10.35-2.55-4.88-3.84-10.11-3.91-15.52-.17-14.83-.06-29.67-.05-44.5,0-.46,.07-.92,.12-1.53h17.08v3.17c0,13.29-.02,26.59,.01,39.88,.01,5.12,1.15,9.97,4.49,13.99,7.16,8.62,21.27,6.11,25.09-4.57,1.08-3.02,1.66-6.36,1.71-9.57,.19-13.19,.08-26.39,.08-39.59v-3.35Z"/><path class="cls-1" d="M2208.39,640.28h17.21v2.64c0,13.68,.09,27.36-.04,41.04-.06,6.89-1.23,13.63-4.97,19.59-4.7,7.5-11.58,12.03-20.26,13.49-9.64,1.62-19.02,.91-27.39-4.85-9.38-6.46-13.12-15.88-13.29-26.8-.23-14.64-.04-29.28-.03-43.93,0-.28,.09-.57,.18-1.09h16.84v3.48c0,12.14-.13,24.28,.08,36.41,.07,3.89,.55,7.9,1.67,11.61,2.07,6.84,7.99,10.89,14.49,10.66,6.99-.25,12.55-4.62,14.27-11.74,.8-3.33,1.16-6.84,1.19-10.27,.14-12.33,.05-24.66,.05-36.99,0-1.04,0-2.07,0-3.25Z"/><path class="cls-1" d="M1118.38,704.3c3.48-4.25,6.8-8.31,9.85-12.05,4.95,2.94,9.42,6.2,14.38,8.33,3.4,1.46,7.46,1.76,11.24,1.85,4.16,.11,7.32-2.86,7.83-6.38,.47-3.25-1.33-6.11-5.38-7.53-5.52-1.93-11.21-3.39-16.76-5.25-2.81-.94-5.55-2.17-8.18-3.55-4.66-2.45-7.68-6.25-8.88-11.47-3.35-14.57,3.25-25.29,17.84-28.83,12.43-3.02,28.7,.91,37.76,9.24-2.81,4.06-5.63,8.14-8.43,12.18-3.56-1.81-6.8-4.07-10.39-5.14-4.05-1.2-8.43-1.9-12.64-1.78-4.34,.12-6.71,2.83-7.12,6.28-.35,3.02,1.35,5.63,5.56,7.12,5.51,1.96,11.23,3.31,16.79,5.16,5.05,1.68,9.94,3.9,13.3,8.24,8.98,11.59,4.27,29.15-9.42,34.41-15.09,5.8-29.07,2.66-42.02-6.37-1.42-.99-2.75-2.11-4.09-3.2-.37-.3-.66-.69-1.22-1.28Z"/><path class="cls-1" d="M1226.67,716.94h-17.15v-61.8h-21.93v-14.81h60.41v14.62h-21.33v61.99Z"/><path class="cls-1" d="M2322.38,640.28h16.81v3.8c0,18.11,.05,36.22-.06,54.33-.02,2.64,.71,3.46,3.39,3.41,8.58-.16,17.16-.06,25.74-.06,1.14,0,2.28,0,3.66,0v15.07h-49.54v-76.54Z"/><path class="cls-1" d="M1745.8,640.24h16.85v76.62h-16.85v-76.62Z"/><path class="cls-1" d="M1259.3,640.21h16.96v76.6h-16.96v-76.6Z"/></svg>