<?xml version="1.0" encoding="UTF-8"?><svg id="Capa_1" xmlns="http://www.w3.org/2000/svg" viewBox="0 0 1483.09 824.43"><defs><style>.cls-1{fill:#fff;}.cls-2{fill:#141414;}</style></defs><path class="cls-2" d="M741.55,146.7c-392.97,0-708.04,117.8-708.04,265.48s317.67,265.55,708.04,265.55,708.04-119.13,708.04-265.55S1131.98,146.7,741.55,146.7"/><g><path class="cls-1" d="M1020.46,468.42c.19,1.27,1.77,2.41,3.29,2.98,.63,.19,.89,.57,.25,1.9-4.43,9.37-8.42,14.82-13.93,23.05-5.07,7.6-10.83,13.49-17.73,19.19-10.51,8.68-25.02,18.05-37.05,11.78-5.32-2.79-7.6-10.26-7.54-16.28,.25-17.04,7.85-34.45,21.79-51.61,17.04-20.9,35.85-31.79,48.13-25.9,12.79,6.14,8.74,20.9,3.04,32.49-.39,.74-.48,1.6-.25,2.41m137.05-132.36c.89-1.65,0-2.85-2.09-2.85h-35.78c-2.66,0-4.05,.38-5.26,2.85-4.12,7.85-54.15,82.77-63.46,97.34-1.52,2.22-3.48,1.9-3.67-.63-.95-8.61-8.42-18.56-20.2-23.31-8.49-3.43-17.74-4.52-26.79-3.17-16.47,2.28-31.1,10.96-44.01,20.71-19.38,14.76-36.1,33.88-57.76,48.07-11.84,7.66-27.99,14.38-38.82,4.37-9.75-9.06-8.68-29.26,6.33-44.84,1.58-1.65,3.48-.25,3.17,1.2-1.65,6.9,.53,14.15,5.7,19,6.52,5.83,15.83,6.52,23.88,2.53,9.13-4.76,15.34-13.71,16.59-23.94,2.13-14.89-8.2-28.69-23.09-30.82-.66-.09-1.32-.16-1.99-.21-12.41-.89-24.38,3.42-36.04,13.05-5.5,4.44-10.28,9.69-14.19,15.58-1.27,1.77-3.1,1.9-3.04-.63,.57-20.39-7.85-31.86-24.7-32.24-13.05-.32-27.04,6.78-37.94,15.45-11.91,9.56-22.36,22.29-33.57,34.2-1.33,1.52-2.53,1.46-2.98-1.39,.06-12.66-3.38-25.09-9.94-35.91-2.4-3.48-7.04-4.6-10.77-2.6-1.84,.95-8.11,3.8-12.67,7.54-2.28,1.9-3.17,4.56-2.15,8.04,6.02,20.14,4.69,43.07-3.48,62.44-7.54,17.73-22.1,33.76-39.27,39.14-11.27,3.61-23.05,1.84-30.34-8.23-9.94-13.81-5.95-37.81,8.93-57.82,13.17-17.61,32.17-28.75,51.11-35.97,2.22-.82,2.72-2.28,2.09-4.18l-3.36-9.25c-1.77-4.69-6.65-5.38-12.54-4.75-13.81,1.58-26.22,6.33-38.51,12.86-32.11,17.23-48.26,50.54-55.29,68.4-2.39,6.68-5.78,12.96-10.07,18.62-5.07,6.33-11.4,12.16-23.05,22.36-1.3,1.19-1.69,3.08-.95,4.69,2.38,4.34,5.39,8.31,8.93,11.78,1.9,.95,4.12-.38,5-1.01,8.11-5.51,17.86-14.25,22.61-20.2,1.65-2.03,3.42-1.14,4.31,1.9,4.36,16.06,16.42,28.9,32.17,34.26,29.45,9.94,60.04-4.43,83.09-29.51,14.63-15.83,19.95-26.16,25.59-33.06,9.5-11.84,28.31-38.25,50.66-55.16,8.23-6.27,17.92-11.02,22.8-7.85,3.93,2.53,5.19,8.42-1.08,19.89-22.8,41.67-56.36,90.56-62.57,102.47-1.14,2.03-.13,3.67,2.03,3.67h34.58c1.84-.13,2.66-.95,3.55-2.22,17.48-27.42,33.95-53.51,51.61-80.43,1.01-1.65,1.9-.38,1.9,.32,.44,6.21,1.9,14.76,5.7,20.39,5.57,9.36,15.7,15.06,26.6,14.95,7.43,.1,14.78-1.46,21.53-4.56,7.35-2.72,13.3-6.27,17.73-9.5,2.66-1.84,3.17,1.27,3.04,1.71-4.05,21.72,.95,47.5,22.61,58.26,25.84,12.67,54.27-5.19,70.68-21.41,1.58-1.58,3.29-1.39,3.48,1.96,.38,6.21,3.17,13.49,8.23,18.68,13.68,13.74,41.36,8.23,69.09-13.24,17.86-13.74,36.48-33.19,53.32-53.77,.63-.76,1.14-2.03-.13-3.36-2.53-2.66-6.27-5.7-8.8-8.11-1.14-1.01-2.85-.7-3.8,0-17.29,16.47-32.87,35.15-55.29,50.66-7.6,5.26-19.63,9.5-25.08,2.22-2.15-2.85-1.9-6.78,.19-12.03,6.52-16.28,110.2-174.16,115.64-183.47"/><path class="cls-1" d="M669.6,355.12c.44,2.34,1.39,2.79,2.47,2.53,5.91-1.61,11.04-5.3,14.44-10.39,3.17-4.56,4.62-11.15,1.52-13.81-2.79-2.34-7.28-1.71-10.64,1.27-5.79,5.11-8.7,12.73-7.79,20.39m-264.28,203.23c-38.63,.25-72.7-23.62-76.63-65.04-2.26-21.54,3.94-43.11,17.29-60.16,11.53-15.01,31.03-27.42,47.5-30.46,5.32-1.01,12.54-.38,15.52,3.17,4.69,5.45,3.36,11.4-1.33,13.81-12.6,6.4-27.74,17.42-35.21,32.43-7.03,13-6.28,28.83,1.96,41.1,15.52,23.43,58.83,24.07,99.05-13.3,10.01-9.18,18.87-17.99,27.93-28.37,17.73-20.27,23.62-27.68,47.18-60.35,.25-.38,.38-.89,.25-1.08-.19-.44-.51-.51-1.2-.63-15.71,.51-29.45,5.19-42.75,15.14-3.8,2.79-9.37,2.41-11.78-1.27-2.66-4.18-.76-9.63,3.67-12.67,21.41-14.95,44.84-17.61,68.78-21.66,0,0,1.65,0,3.04-1.71,9.82-12.67,17.23-24,27.68-36.73,10.58-12.92,24.19-24.83,34.58-33.76,14.57-12.48,23.88-16.66,33.31-21.85,2.53-1.27-.32-2.85-1.08-2.85-52.88-9.94-107.79-22.8-160.29-3.36-36.35,13.55-52.31,42.43-44.65,61.68,5.45,13.68,23.43,15.83,40.28,7.6,13.93-6.78,26.92-17.86,36.1-32.05,5.07-7.92,15.9-2.22,10.07,11.53-15.39,36.1-44.71,64.72-80.43,65.93-30.46,1.01-50.09-21.41-50.03-49.02,.13-54.46,60.8-90.31,124.45-95.69,76.76-6.33,149.46,14.12,225.65,23.37,58.39,7.03,114.38,7.22,173.08-6.33,6.97-1.46,11.78,2.98,11.4,9.94-.63,10.13-8.49,19.89-27.8,30.4-21.98,12.1-44.96,15.77-69.03,15.96-58.01,.51-112.1-22.17-168.14-34.33,.06,2.47,.76,5.38-1.27,6.97-31.03,22.8-59.09,46.04-77.9,78.66-.63,.76-.25,1.52,.82,1.39,16.34-.82,30.97-1.27,46.23-2.53,2.6-.19,2.72-.82,2.53-2.79-1.67-12.22,2.73-24.49,11.78-32.87,10.13-9.06,22.8-10.13,31.22-3.55,9.5,7.41,8.68,20.84,3.48,30.84-4.73,8.9-12.86,15.5-22.55,18.3,0,0-1.77,.38-1.52,1.96,.32,2.53,11.84,8.93,12.79,10.64,.95,1.65,.44,4.12-1.27,6.02-1.37,1.67-3.41,2.64-5.57,2.66-1.96,0-3.17-.7-5.7-2.09-6.04-3.23-11.41-7.57-15.83-12.79-1.52-1.84-2.28-1.9-5.89-1.65-16.47,.95-42.18,3.42-59.53,5.57-4.24,.51-4.88,1.33-5.7,2.79-27.74,45.72-57.38,95.06-89.93,128.12-34.83,35.4-63.84,44.71-94.62,44.96"/><path class="cls-1" d="M741.55,190.15c-361.56,0-654.59,99.87-654.59,222.16s293.03,222.16,654.59,222.16,654.59-99.94,654.59-222.16-293.1-222.16-654.59-222.16m0,464.47c-374.73,0-678.46-108.49-678.46-242.3S366.82,170.01,741.55,170.01s678.4,108.42,678.4,242.3-303.73,242.3-678.4,242.3"/></g></svg>