<?xml version="1.0" encoding="UTF-8"?><svg id="Capa_1" xmlns="http://www.w3.org/2000/svg" viewBox="0 0 1483.09 824.43"><defs><style>.cls-1{fill:#111;}</style></defs><path class="cls-1" d="M143.18,129.83c402.26,79.05,800.55,68.26,1199.26-30.34,0,6.8-.99,14.94,.2,22.74,2.68,17.56-5.21,25.53-21.8,28.28-80.78,13.37-161.06,31.2-242.32,39.84-224.06,23.83-448.68,23.86-672.74,.02-81.27-8.65-161.66-25.83-242.3-39.97-19.77-3.47-19.5-5.01-20.3-20.56Z"/><path class="cls-1" d="M1343.74,691c-404.23-74.54-802.66-63.74-1199.48,33.95-9.57-35.03-7.51-39.44,28.01-48.06,157.99-38.36,319.08-49.66,480.87-53.29,191.43-4.29,382.32,2.3,571.51,34.98,33.09,5.72,65.84,13.51,98.53,21.26,7.33,1.74,13.73,7.34,20.57,11.16Z"/><path class="cls-1" d="M1011.85,338.59c0-16.45,0-30.32,0-44.19,.03-33.93,1.98-35.93,39.55-38.21,.61,6.99,1.75,14.05,1.76,21.11,.13,79.56,.16,159.12,.04,238.68-.04,23.56-9.37,29.8-32.28,24.02-8.35-2.11-17.87-2.83-26.23-1.1-35.28,7.28-59.15-8.1-61.66-44.2-2.44-35.11-2.49-70.49-1.66-105.71,1.06-45.05,22.68-61.05,67.61-52.36,3.15,.61,6.35,.98,12.86,1.96Zm-.05,98.48c0-20.51,1.49-41.2-.8-61.45-.81-7.15-10.88-13.25-16.73-19.83-5.75,6.63-16.21,13.08-16.47,19.92-1.56,40.97-1.55,82.06-.06,123.03,.26,7.22,10.02,14.09,15.39,21.12,6.23-7.08,16.85-13.6,17.83-21.34,2.54-20.19,.86-40.92,.85-61.44Z"/><path class="cls-1" d="M471.2,257.85v75.49c4.33,2.82,5.76,4.55,6.9,4.38,58.8-8.97,76.77,4.34,72.72,65.91-2.52,38.38-1,77.06-.23,115.59,.31,15.61-4.42,21.83-20.91,21.88-16.46,.05-21.24-6.03-20.98-21.7,.74-44.27,1.33-88.6-.52-132.8-.44-10.59-9.91-28.99-16.49-29.58-18.56-1.65-19.1,15.33-19.06,29.89,.12,40.18,.44,80.37-.16,120.54-.22,14.7,7.46,34.1-21.21,33.73-27.11-.35-19.82-18.61-19.91-32.52-.46-70.52-.22-141.04-.21-211.56,0-34.65,.63-35.28,40.06-39.23Z"/><path class="cls-1" d="M182.77,458.51c0,15.84-2.22,28.38,.7,39.58,2.35,8.99,9.53,18.53,17.32,23.57,4.44,2.87,18.68-.64,20.95-5.11,4.19-8.25,6.46-20.83,3.11-28.97-14.34-34.82-31.07-68.66-46.82-102.91-7.87-17.12-16.47-33.98-23.04-51.6-13.03-34.96-1.57-62.64,29.7-74.86,34.44-13.47,72.44-.12,86.52,30.38,11.33,24.55,5.9,34.96-28.89,50.2,0-12.49,2.35-24.2-.65-34.33-3.13-10.58-9.7-21.81-18.15-28.45-4.44-3.49-21.75,.03-23.41,4.26-3.96,10.04-5.9,24.03-1.85,33.53,18.3,42.94,39.05,84.84,58.7,127.21,4.47,9.64,9.13,19.4,11.86,29.6,8.55,31.94-3.59,57.31-31.79,68.42-32.51,12.82-66.09,2.32-81.53-25.49-13.96-25.15-9.01-36.97,27.26-55.04Z"/><path class="cls-1" d="M585.46,335.7c27.7,0,53.63-1.33,79.37,.37,26.92,1.78,37.64,14.7,37.73,41.21,.16,47.53-.42,95.07,.3,142.59,.24,15.81-4.86,21.55-21.12,21.62-16.69,.07-21.11-6.61-20.89-21.98,.63-44.25,1.29-88.55-.56-132.73-.44-10.52-9.97-28.85-16.45-29.37-18.35-1.46-19.19,15.3-19.11,29.94,.22,45.07-.16,90.15,.47,135.22,.2,14.13-5.67,19.24-19.03,18.51-10.57-.58-22.72,1.78-22.65-14.68,.26-63.07,.6-126.15,1.05-189.22,0-1.34,1.71-2.67,.9-1.49Z"/><path class="cls-1" d="M1191.08,512.09c-11.78,25.78-30.93,35.27-59.59,32.48-31.25-3.05-51.79-16.64-54-44.16-3.27-40.65-3.71-81.91-.7-122.57,2.19-29.5,31.53-46.72,64.04-43.69,32.64,3.04,50.95,21.86,50.73,54.45-.41,61.68,8.06,49.7-45.04,65.08-27.16,7.87-31.18,14.33-25,41.8,4.61,20.5,20.35,30.11,43.01,25.46,7.73-1.59,15.1-4.96,26.55-8.84Zm-71-76.65c25.48,1.24,32.92-9.34,30.33-29.92-1.32-10.5,1.38-21.66-.86-31.83-1.47-6.67-8.52-12.1-13.08-18.09-5.46,5.91-14.99,11.41-15.64,17.81-2.04,20.15-.75,40.64-.75,62.02Z"/><path class="cls-1" d="M839.61,513.12c-9.11,27.62-30.41,32.76-53.98,31.45-25.26-1.4-50.95-9.92-53.68-37.42-4.41-44.34-5.42-89.65-1.45-133.98,2.51-28,33.75-42.81,64.77-38.86,30.96,3.94,48.31,22.91,49.3,53.92,.08,2.45,.05,4.91,.02,7.37-.54,51.24,6.02,43.48-42.77,57.21-30.88,8.69-35.7,15.96-28.08,43.42,6.31,22.73,25.11,31.22,50.76,22.78,5.13-1.69,10.07-3.91,15.1-5.88Zm-67.96-77.43c25.2,1.08,32.99-9.16,30.55-29.62-1.24-10.42,1.54-21.57-.95-31.52-1.77-7.09-9.3-12.75-14.25-19.04-5.12,6.3-13.98,12.22-14.64,18.96-1.97,20.02-.7,40.35-.7,61.23Z"/><path class="cls-1" d="M410.81,508.95c-15.25,29.39-36.41,37.93-70.83,33.63-25.44-3.18-42.69-17.59-44.5-41.87-3.04-40.74-3.22-81.92-1.15-122.74,1.08-21.25,17.34-35,38.46-39.67,24.6-5.44,50.31-7.8,68.51,13.41,6.82,7.95,11.37,26.05,6.9,33.45-5.7,9.44-21.59,12.72-37.54,20.96-1.02-14.66,.18-23.94-2.75-31.65-2.7-7.1-9.85-12.5-15.04-18.65-4.85,5.69-13.74,11.27-13.91,17.09-1.11,39.32-1.76,78.76,.28,118.01,1.22,23.5,21.42,34.9,44.69,28.54,7.61-2.08,14.79-5.72,26.9-10.52Z"/><path class="cls-1" d="M1214.41,329.43c7.4,0,10.79-.76,13.67,.12,19.46,5.99,37.76,15.58,59.75,5.84,6.93-3.07,22.19,.99,26.88,7.03,8.68,11.16,18.11,27.08,16.23,39.34-1.39,9.1-20.15,15.54-36.71,27.01-1.16-15.88,.35-24.54-2.79-30.9-4.15-8.41-11.95-15.02-18.17-22.41-5.83,7.62-16.44,15.07-16.71,22.88-1.6,46.66-1.83,93.44-.38,140.11,.69,22.34-11.12,24.99-27.39,21.96-5.38-1-13.7-8.09-13.76-12.49-.89-65.39-.61-130.79-.61-198.49Z"/><path class="cls-1" d="M870.04,340.02q38.55,7.47,38.59,42.12c.1,44.95-.08,89.9,.62,134.84,.24,15.62-2.97,24.17-21.47,24.15-18.22-.02-22.13-8.17-21.91-23.94,.76-53.11,.74-106.22,1.25-159.33,.05-5.4,1.72-10.78,2.92-17.84Z"/><path class="cls-1" d="M883.51,326.64c-5.61-9.39-16.03-19.15-15.35-28.06,.58-7.6,13.97-19.73,21.62-19.68,7.32,.05,20.1,13.03,20.37,20.68,.32,8.91-10.35,18.21-16.25,27.34-3.46-.09-6.93-.18-10.39-.27Z"/></svg>