<?xml version="1.0" encoding="UTF-8"?><svg id="Capa_1" xmlns="http://www.w3.org/2000/svg" viewBox="0 0 1483.09 824.43"><defs><style>.cls-1{fill:#111;fill-rule:evenodd;}</style></defs><path class="cls-1" d="M60.87,565.09c41.13,0,66.42-21.15,75.18-63.8l8.77-41.96h-47.87l-8.77,41.96c-2.02,11.1-8.09,16.64-17.53,16.64-7.75,0-11.46-3.47-11.46-10.75l.67-5.89,36.41-177.2c2.36-11.1,8.09-16.64,17.53-16.64,7.75,0,11.8,3.81,11.8,10.75l-.67,5.89-8.77,41.96h47.87l9.1-41.96c1.69-7.63,2.36-14.22,2.36-20.46,0-28.78-17.19-43.35-51.25-43.35-41.47,0-66.41,21.15-75.18,63.8L12.32,501.28c-1.69,7.28-2.36,14.22-2.36,20.46,0,28.78,16.86,43.35,50.91,43.35Zm136.7,0c41.13,0,66.42-21.15,75.18-63.8l37.09-177.2c1.68-7.63,2.36-14.22,2.36-20.46,0-28.78-17.19-43.35-51.24-43.35-41.47,0-66.42,21.15-75.18,63.8l-36.75,177.2c-1.68,7.28-2.36,14.22-2.36,20.46,0,28.78,16.86,43.35,50.91,43.35Zm64.73-246.9l-.67,5.89-36.75,177.2c-2.02,11.1-8.09,16.64-17.53,16.64-7.75,0-11.46-3.47-11.46-10.75l.67-5.89,36.41-177.2c2.36-11.1,8.09-16.64,17.53-16.64,7.75,0,11.8,3.81,11.8,10.75Zm76.1-53.36h66.08c31.35,0,46.86,14.22,46.86,42.3,0,6.59-.67,13.52-2.36,21.5l-34.72,167.83c-8.76,42.31-33.37,63.8-73.49,63.8h-63.72l61.36-295.44Zm38.1,47.16l-41.47,201.47h14.16c9.44,0,15.17-5.55,17.53-16.64l34.73-167.83,.67-5.89c0-7.28-3.71-11.1-11.46-11.1h-14.16Zm215.21-47.16h-112.6l-61.02,295.79h112.6l9.78-47.16h-64.73l15.84-76.98h55.63l9.78-47.16h-55.63l15.85-77.33h64.73l9.77-47.16Zm12.58,0h62.7c31.36,0,46.86,14.22,46.86,42.3,0,6.59-.68,13.52-2.36,21.5l-8.76,43.69c-5.39,26.7-19.55,44.04-42.14,52.02l17.87,136.28h-52.26l-6.4-127.26h-2.7l-26.3,127.26h-47.87l61.36-295.79Zm38.1,47.16l-15.85,76.98h5.73c5.06,0,10.12-1.04,10.12-1.04,6.4-2.43,10.79-7.63,12.47-15.95l8.77-43.69,.67-5.89c0-7.28-3.71-11.1-11.46-11.1l-10.45,.69Zm205.79-47.16h-47.87l-61.02,295.79h47.87l25.62-124.14h28.32l-25.62,124.14h47.87l61.02-295.79h-47.87l-25.62,124.14h-28.32l25.62-124.14Zm168.12,236.45c-8.77,42.65-34.06,63.8-75.18,63.8-34.05,0-50.91-14.56-50.91-43.35,0-6.24,.68-13.18,2.36-20.46l36.75-177.2c8.76-42.65,33.71-63.8,75.18-63.8,34.06,0,51.25,14.56,51.25,43.35,0,6.24-.68,12.83-2.36,20.46l-37.08,177.2Zm-11.13-177.2l.67-5.89c0-6.94-3.7-10.75-11.45-10.75-9.44,0-15.52,5.55-17.87,16.64l-36.75,177.2-.67,5.89c0,7.28,3.7,10.75,11.46,10.75,9.44,0,15.51-5.55,17.53-16.64l37.08-177.2Zm75.01,241.05c41.13,0,66.42-21.15,75.18-63.8l48.89-236.49h-47.88l-48.55,236.49c-2.01,11.1-8.09,16.64-17.53,16.64-7.76,0-11.46-3.47-11.46-10.75l.68-5.89,48.88-236.49h-47.87l-48.89,236.49c-1.68,7.28-2.36,14.22-2.36,20.46,0,28.78,16.86,43.35,50.91,43.35Zm127.27-241.05c8.77-42.65,33.71-63.8,75.18-63.8,34.06,0,51.24,14.56,51.24,43.35,0,6.24-.67,12.83-2.36,20.46l-8.76,41.96h-47.88l8.77-41.96,.68-5.89c0-6.94-3.72-10.75-11.46-10.75-9.44,0-15.52,5.55-17.87,16.64l-5.39,26.35-.34,4.16c0,11.44,9.44,24.97,27.98,41.26,17.87,15.26,26.98,33.29,26.98,53.4,0,5.2-.68,10.4-1.69,15.6l-7.75,36.76c-8.77,42.65-33.72,63.8-75.18,63.8-34.06,0-51.25-14.56-51.25-43.69,0-6.24,.68-12.83,2.36-20.46l8.77-41.96h47.87l-8.76,41.96-.68,5.89c0,7.28,3.7,10.75,11.46,10.75,9.44,0,15.17-5.55,17.53-16.64l6.74-32.94,.33-4.51c0-12.14-9.1-26.35-27.64-42.3-17.86-15.26-26.63-33.29-26.63-53.75,0-5.2,.68-10.75,1.69-16.3l6.07-27.39Zm265.68-59.25h-112.61l-61.01,295.44h112.6l9.77-47.16h-64.39l15.84-76.98h55.64l9.77-47.16h-55.96l15.84-76.98h64.73l9.78-47.16Z"/></svg>