<?xml version="1.0" encoding="UTF-8"?><svg id="Capa_1" xmlns="http://www.w3.org/2000/svg" viewBox="0 0 1483.09 824.43"><defs><style>.cls-1{fill:#fff;}.cls-1,.cls-2{fill-rule:evenodd;}.cls-2{fill:#111;}</style></defs><path class="cls-2" d="M1076.87,297.97c-18.5-43.74-44.58-82.43-77.94-116.08-33.37-33.36-72.06-59.44-115.52-77.95-45.41-19.34-92.8-28.88-141.86-28.88s-96.45,9.53-141.87,28.88c-43.46,18.5-82.43,44.58-115.79,77.95-33.64,33.64-59.44,72.34-77.95,116.08-19.06,45.14-28.6,92.52-28.6,141.59,0,24.11,2.24,48.22,7.29,73.18l112.43,81.02,17.66,138.22h183.64l10.93,6.72c9.53,7.29,19.91,10.65,32.24,10.65s22.71-3.36,31.96-10.65l10.09-6.72h185.61l17.38-138.22,111.87-81.02c4.77-24.96,7.29-49.07,7.29-73.18,0-49.07-9.53-96.45-28.88-141.59Z"/><path class="cls-1" d="M1023.04,339.47c-7.29-30.84-22.99-57.2-47.39-78.51l-170.74,294.11,151.12-322.43c-20.19-26.64-45.7-44.86-77.94-55.24l-104.58,365.61,76.55-380.47c-23.83-13.18-49.07-19.91-75.99-19.91l-17.1,1.12-15.14,395.88-15.98-395.88-16.82-1.12c-26.91,0-52.43,6.73-75.98,19.91l75.7,380.47-103.73-365.6c-32.24,10.38-58.32,28.6-77.94,55.24l151.96,322.43-171.59-294.11c-24.39,21.31-40.09,47.66-47.38,78.51l191.21,234.95-196.82-197.67c-8.97,20.19-13.46,41.22-13.46,62.81,0,12.05,1.4,24.95,4.77,38.69l110.47,80.75,14.58,108.5h134.3l19.06,14.58c5.33,3.64,10.94,5.33,17.38,5.61,6.17-.27,12.06-1.96,16.82-5.61l20.19-14.58h134.86l13.74-108.5,110.18-80.75c3.08-13.74,4.77-26.64,4.77-38.69,0-21.59-4.77-42.62-13.46-62.81l-195.7,197.66,190.09-234.94h0Z"/></svg>