<?xml version="1.0" encoding="UTF-8"?><svg id="Capa_1" xmlns="http://www.w3.org/2000/svg" viewBox="0 0 1483.09 824.43"><defs><style>.cls-1{fill:#fff;}.cls-1,.cls-2{fill-rule:evenodd;}.cls-3,.cls-2{fill:#111;}</style></defs><g><path class="cls-2" d="M494.93,451.06c-3.34-35.46,20.07-59.53,40.14-71.57,20.07-12.05,39.45-29.43,44.15-40.14,3.16-7.24-3.76-21.18-8.57-29.46-4.27-.42-8.55-.63-12.84-.63-71.67,0-129.76,58.1-129.76,129.76,0,22.55,5.76,43.74,15.87,62.21h91.82s-38.65-27.29-40.81-50.17h0Z"/><path class="cls-2" d="M603.31,473.81c-9.83,10.41-34.79,27.43-44.15,12.71-9.34-14.68,19.62-27.1,34.11-37.46,23.41-16.72,27.43-26.09,27.43-26.09,0,0-6.02,38.8-17.39,50.84Zm-17.73-161.54c13.32,14.18,36.55,42.86,35.12,69.24-2.01,36.78-18.74,44.14-43.48,60.86-24.75,16.71-37.46,28.09-37.46,38.8s12.71,20.73,12.71,20.73h118.87c10.68-19.24,16.28-40.88,16.25-62.88,0-62.12-43.69-114.03-102.01-126.75Zm-130.15,206.37c23.74,30.5,60.74,50.16,102.39,50.16s78.65-19.66,102.39-50.16h-204.78ZM45.21,392.22c0-28.51,51.49-85.21,98.06-86.93,56.33-2.09,86.93,28.51,86.93,28.51,0,0,25.74-29.91,76.5-29.91,63.3,0,110.17,61.45,110.17,96.48v162.31h-84.14v-147.56c0-11.71-1.94-20.4-5.84-26.09-5.67-8.94-18.21-13.42-26.47-13.42-10.05,0-18.07,4.23-24.07,12.68-5.99,8.45-9,22.04-9,40.74v133.66h-78.58v-142.32c0-11.35-.58-19.05-1.7-23.12-1.79-6.48-14.58-23.12-34.05-21.65-9.58,.72-20.16,4.31-26.43,12.9-6.27,8.59-9.4,22.7-9.4,42.32v131.86H44.8l.4-170.47h0ZM696.7,252.2h76.16v312.8h-76.16V252.2Zm223.4,130.99v-68.16h-53.31v-62.83h-76.16s-.21,176.13,0,190.87c.81,55.56,32.09,113.28,80.78,117.45,13.18,1.13,48.69,0,48.69,0v-61.2s-27.13,2.79-39.64-6.95c-13.89-10.8-13.66-49.3-13.66-49.3v-59.89h53.3v.02h0Z"/><path class="cls-2" d="M1105.91,478.35h76.98c-17.61,54.47-68.71,93.89-129.04,93.89-74.9,0-135.62-60.72-135.62-135.62s60.72-135.62,135.62-135.62,135.62,60.72,135.62,135.62c0,8.4-.8,16.78-2.35,25.03h-195.13c9.91,24.45,33.86,41.73,61.87,41.73,20.26,.01,39.42-9.2,52.06-25.03h0Z"/><path class="cls-1" d="M1109.04,399.06h-110.39c12.02-17.63,32.25-29.21,55.19-29.21s43.17,11.58,55.19,29.21Z"/><path class="cls-2" d="M1336.01,410.31v157.17h74.41v-157.17s-3.48-100.14-116.84-99.45c-98.06,.6-98.75,99.45-98.75,99.45v157.17h74.41v-157.17s3.48-29.21,31.99-29.21,34.78,29.21,34.78,29.21Zm59.73-84.58v-30.47h13.5c2.71,0,4.79,.28,6.19,.82s2.54,1.51,3.39,2.89c.83,1.39,1.25,2.93,1.25,4.6,.05,2.03-.7,3.99-2.09,5.46-1.41,1.48-3.56,2.43-6.49,2.83,1.07,.51,1.87,1.01,2.43,1.52,1.17,1.08,2.29,2.43,3.35,4.05l5.3,8.29h-5.07l-4.03-6.34c-.91-1.45-1.88-2.85-2.93-4.19-.57-.78-1.25-1.47-2.03-2.04-.57-.37-1.19-.65-1.84-.82-.74-.12-1.49-.16-2.24-.14h-4.68v13.53h-4.03Zm4.03-17.02h8.67c1.82,0,3.28-.19,4.32-.58,.97-.33,1.8-.97,2.37-1.82,.53-.82,.81-1.76,.81-2.74,.04-1.36-.54-2.66-1.56-3.55-1.05-.93-2.71-1.39-4.97-1.39h-9.63v10.08h0Z"/></g><path class="cls-3" d="M1438.29,311.5c.01,8.59-3.41,16.82-9.49,22.88-6.05,6.07-14.27,9.48-22.84,9.48h-.03c-8.58,0-16.82-3.41-22.87-9.49-6.07-6.05-9.48-14.27-9.48-22.84v-.04c0-8.92,3.62-17.02,9.49-22.87,6.05-6.07,14.27-9.48,22.84-9.48h.03c8.58,0,16.82,3.41,22.87,9.49,6.07,6.05,9.48,14.28,9.48,22.85v.02Zm-5.56,0v-.03c0-14.78-11.96-26.77-26.74-26.78h-.08c-14.77-.02-26.76,11.94-26.78,26.71v.11c-.01,14.77,11.95,26.76,26.73,26.78,.02,0,.04,0,.06,0h.03c7.39,0,14.09-3,18.93-7.84,5.03-5.02,7.86-11.84,7.85-18.95Z"/></svg>