<?xml version="1.0" encoding="UTF-8"?><svg id="Capa_1" xmlns="http://www.w3.org/2000/svg" viewBox="0 0 1483.09 824.43"><defs><style>.cls-1{fill:#111;}</style></defs><path class="cls-1" d="M153.37,258.13H33.51v54.2h35.28v164.2s0,102.63,108.43,102.63c0,0,45.96,.86,73.07-36.96,0,0,23.01,36.96,66.49,36.96,0,0,41.14,4.15,69.01-21.32,0,0,57.55-38.59,56.66-157.69,0,0-1.66-89.44-22.98-142.02h-98.69v54.2h29.71s15.64,44.34,15.64,101c0,0,1.72,33.95-15.64,69.78,0,0-10.6,25.5-33.71,25.5,0,0-20.46-.86-19.7-25.5v-224.98h-119.86v54.2h35.34v166.75s0,29.53-29.53,29.53c0,0-29.65-.03-29.65-29.53v-220.95Zm364.01,24.43s49.84,0,49.84,38.59c0,0,.22,38.59-49.84,38.59,0,0-50.14,0-50.14-38.59,0,0-.37-38.59,50.14-38.59"/><path class="cls-1" d="M458.05,366.53h97.65v129.36s0,14.78,13.61,14.78c0,0,16.84-2.03,26.67-18.13,0,0,14.81-18.87,14.81-34.44v-156.4s2.03-56.66,77.95-56.66c0,0,75.59-2.46,75.59,71.01,0,0,4.18,34.44-23.78,83.76,0,0-12.32,22.95-26.33,43.94,0,0-10.23,15.92-20.09,29.93,0,0-7.8,8.66-7.8,19.76,0,0-.86,18.47,18.89,18.47,0,0,17.27-.4,30.76-15.21,0,0,20.19-18.87,30.82-49.22,0,0,16.84-36.59,17.64-80.93h71.87s.37,6.95,2.49,14.38c0,0,2.46,11.06,16.87,30.82,0,0,20.1,28.73,26.27,39.39,0,0,15.15,22.55,15.15,50.94,0,0-.4,28.3-20.19,47.99,0,0-22.12,27.56-54.54,27.56,0,0-22.59,0-42.68-11.15,0,0-24.67-13.15-35.33-27.93,0,0-1.14-1.63-4.03-1.63l-4,1.75s-14.63,15.52-30.14,24.09c0,0-20.56,14.87-50.48,14.87,0,0-27.16,0-43.54-15.67,0,0-14.38-11.89-17.27-25.87l-3.04-2.34-3.53,2.18s-12.72,14.99-28.76,26.03c0,0-17.24,15.67-47.62,15.67,0,0-27.5,.37-41.91-14.38,0,0-15.95-14.01-15.95-35.3v-113.78s.77-10.69-16.01-10.69v-36.93Zm338.73,110.86c-3.29,8.45-7.84,17.67-7.84,17.67l-1.6,5.1c.37,2.83,1.81,5.38,1.81,5.38,3.69,6.02,9.06,9.28,9.06,9.28,5.56,4.46,14.81,4.46,14.81,4.46,11.19,0,16.56-8.79,16.56-8.79,5.59-7.65,5.59-16.04,5.59-16.04,0-5.53-4.12-13.12-4.12-13.12-3.13-6.57-9.43-18.47-9.43-18.47-3.75-6.15-7.37-13.95-7.37-13.95-1.78-4.58-3.44-3.93-3.44-3.93l-3.16,4.73c-5.9,16.41-10.88,27.68-10.88,27.68h0Zm-109.48-73.19l3.32-3.78c14.01-20.16,24.46-57.67,24.46-57.67,3.26-10.42,3.63-24.89,3.63-24.89,0-9.25-3.63-18.25-3.63-18.25-4.43-9-10.88-8.85-10.88-8.85-8.33,0-14.6,11.15-14.6,11.15-5.78,9.5-5.78,26.43-5.78,26.43v69.35c0,9.68,3.47,6.51,3.47,6.51m235.12,65.79s1.6-50.91,32.02-77.15c0,0,29.56-29.62,76.78-29.62,0,0,47.2,.43,72.7,26.7,0,0,7.8,7.37,11.92,13.55,0,0,2.89,3.29,5.32,.4,0,0,15.21-17.64,25.01-24.18,0,0,20.13-16.84,42.68-16.84,0,0,18.56-.46,28.76,9.43,0,0,12.38,10.29,18.56,23.01,0,0,3.26,5.32,8.14,.4,0,0,10.26-11.15,22.18-19.3,0,0,19.27-14.81,46.46-14.81,0,0,24.18,.8,35.64,12.29,0,0,20.09,16.04,20.09,38.25v114.15s0,13.92,12.35,14.29h12.35v35.34h-66.18s-39.76-.43-39.76-43.91v-81.73s0-17.24-21.35-17.24c0,0-23.84,.46-23.84,20.16v122.72h-81.24v-126.04s-.46-11.89-9.86-11.89c0,0-8.63,1.23-13.58,7.44,0,0-4.03,3.66-2.03,9.4,0,0,1.63,8.6,1.63,18.5,0,0,.4,46.34-29.06,73.47,0,0-28.79,30.82-76.48,30.82,0,0-47.2,0-74.3-27.1,0,0-34.9-28.3-34.9-80.5h0Zm107.6,52.48s13.52,.61,18.44-9.83c0,0,5.72-11.12,7.04-42.31v-.34c-1.32-31.19-7.04-42.25-7.04-42.25-4.91-10.48-18.44-9.83-18.44-9.83h-.4s-13.58-.64-18.53,9.83c0,0-5.71,11.06-7.01,42.25v.34c1.29,31.19,7.01,42.31,7.01,42.31,4.95,10.45,18.53,9.83,18.53,9.83h.4Zm399.07,17.7c4.88,0,9.03,1.69,12.44,5.16,3.47,3.41,5.13,7.53,5.13,12.38s-1.66,9.06-5.13,12.51c-3.38,3.41-7.53,5.1-12.44,5.1s-9.03-1.69-12.38-5.1c-3.38-3.44-5.04-7.59-5.04-12.51s1.66-8.97,5.04-12.38c3.44-3.47,7.59-5.16,12.38-5.16h0Zm20.49,17.55c0-5.62-2-10.45-5.93-14.38-4.06-3.96-8.82-5.96-14.47-5.96s-10.45,2-14.35,5.96c-4,4-6.02,8.76-6.02,14.38s2.03,10.42,5.96,14.41c3.93,4,8.76,5.99,14.41,5.99s10.41-2,14.47-5.99c3.93-4,5.93-8.76,5.93-14.41Zm-14.96-4.39l-2.3,3.38-3.81,.59h-3.66v-8.05h3.41l4.88,.83,1.48,3.26Zm-13.64-6.91v22.4h3.87v-8.79h3.14l4.45,.71,2.15,5.1v1.78l.03,.77,.06,.21,.06,.22h3.66l-.09-.25-.25-1.2v-3.32l-1.26-3.41-3.78-2.21,3.23-1.04,2.15-4.46c0-2.8-1.2-4.7-3.47-5.65-1.29-.52-3.32-.86-6.18-.86h-7.77Z"/></svg>