<?xml version="1.0" encoding="UTF-8"?><svg id="Capa_1" xmlns="http://www.w3.org/2000/svg" viewBox="0 0 502.5 650.15"><defs><style>.cls-1{fill:#fcfdfd;}.cls-2{fill:#057847;}.cls-3{fill:#1c1c1c;}.cls-4{fill:#fcfdfc;}.cls-5{fill:#f8ec07;}.cls-6{fill:#252116;}.cls-7{fill:#f9f9f9;}.cls-8{fill:#1d1d1d;}.cls-9{fill:#fcef03;}.cls-10{fill:#017844;}.cls-11{fill:#1f1d13;}</style></defs><path class="cls-2" d="M502.5,321.15c-.13,17.2-1.05,34.36-2.96,51.44-2.87,25.69-8,50.92-15.86,75.56-8.57,26.88-19.94,52.52-34.4,76.76-22.59,37.86-51.92,69.28-89.27,92.97-22.26,14.12-46.18,24.19-72.16,29.07-18.03,3.39-36.18,4.02-54.44,2.22-23.38-2.3-45.83-8.07-67.17-17.98-20.89-9.71-39.53-22.78-56.67-38.07-32.65-29.13-57.15-64.15-74.94-103.98-12.25-27.43-21.18-55.92-27.02-85.39-3.97-20.02-6.36-40.21-7.24-60.61-1.14-26.36,.44-52.54,4.29-78.63,4.58-30.99,12.27-61.15,24.09-90.19,16.55-40.65,39.77-76.99,70.86-108.09,27.9-27.91,60.69-47.82,98.73-58.78C213.9,2.96,229.78,.48,246.02,.06c37.12-.95,71.51,8.81,103.93,26.29,18.97,10.23,35.98,23.14,51.39,38.18,24.29,23.73,43.46,51.2,59.14,81.19,15.97,30.55,26.92,62.88,33.66,96.65,4.57,22.91,7.37,46.05,7.94,69.43,.08,3.11,.28,6.23,.42,9.34Zm-488.69,3.09c-.46,14.72,.82,33.12,2.95,51.49,2.28,19.62,6.1,38.94,11.46,57.96,8.55,30.35,20.9,59.08,37.05,86.16,19.95,33.44,45,62.17,77.41,84.16,38.96,26.45,81.52,38.94,128.78,33.61,25.01-2.82,48.45-10.41,70.43-22.6,20.29-11.25,38.03-25.78,54.23-42.28,28.91-29.47,50-63.92,65.01-102.21,9.99-25.49,17.24-51.74,21.83-78.74,3.46-20.37,5.22-40.89,5.47-61.53,.22-17.52-.79-34.99-2.7-52.42-2.17-19.79-5.74-39.33-10.89-58.55-8.87-33.13-22.19-64.38-40.09-93.67-12.77-20.88-27.47-40.24-45.39-56.99-31.86-29.79-68.81-49.72-112.08-57.14-18.69-3.2-37.41-2.87-56.06,.39-18.93,3.31-36.86,9.68-53.94,18.39-37.85,19.29-68.22,47.04-91.83,82.22-26.35,39.26-43.88,82.22-53.5,128.48-5.46,26.22-7.98,52.73-8.15,83.27Z"/><path class="cls-4" d="M13.81,324.23c.17-30.54,2.69-57.05,8.15-83.27,9.62-46.26,27.15-89.22,53.5-128.48,23.61-35.18,53.98-62.92,91.83-82.22,17.08-8.71,35.01-15.08,53.94-18.39,18.65-3.26,37.37-3.59,56.06-.39,43.27,7.42,80.22,27.35,112.08,57.14,17.92,16.75,32.62,36.11,45.39,56.99,17.9,29.28,31.22,60.53,40.09,93.67,5.15,19.22,8.72,38.75,10.89,58.55,1.91,17.43,2.91,34.9,2.7,52.42-.25,20.64-2.01,41.16-5.47,61.53-4.59,27-11.84,53.26-21.83,78.74-15.01,38.29-36.1,72.74-65.01,102.21-16.2,16.51-33.94,31.03-54.23,42.28-21.98,12.19-45.42,19.78-70.43,22.6-47.26,5.33-89.81-7.16-128.78-33.61-32.41-22-57.47-50.73-77.41-84.16-16.16-27.08-28.5-55.81-37.05-86.16-5.36-19.01-9.18-38.33-11.46-57.96-2.14-18.37-3.42-36.77-2.95-51.49Zm236.71-54.26c-4.72,0-9.44,0-14.16,0-65.82-.02-131.65-.05-197.47-.07-5.13,0-6.27,.93-6.79,5.88-.57,5.32-1.06,10.65-1.5,15.99-2.19,26.29-1.79,52.56,1.23,78.76,3.19,27.67,9.02,54.79,18.18,81.13,13.46,38.73,32.92,74.05,60.16,104.87,19.33,21.87,41.97,39.44,68.46,51.89,34.11,16.03,69.59,20.28,106.51,12.46,31.21-6.61,58.41-21.14,82.38-41.85,29.89-25.83,52.56-57.12,69.26-92.83,11.07-23.65,19.22-48.29,25.07-73.73,4.07-17.7,6.8-35.6,8.38-53.68,1.37-15.7,1.53-31.45,1.13-47.2-.3-11.76-1.27-23.46-2.54-35.15-.59-5.42-1.93-6.55-7.38-6.54-20.55,.02-41.11,.06-61.66,.07-49.75,0-99.5,0-149.24,0Zm125.33-88.44c9.02,.68,18.06-.59,27.14-1.05,.4-.02,.79-.11,1.18-.18,6.61-1.17,13.3-1.84,19.86-3.41,5.11-1.23,10.29-2.2,15.28-3.91,1.99-.68,2.69-2.14,1.91-4.06-1.51-3.69-2.86-7.46-4.65-11-6.83-13.45-14.09-26.62-22.58-39.16-7.75-11.45-16.22-22.27-25.46-32.49-7.46-8.25-15.57-15.86-24.33-22.73-4.12-3.23-8.21-6.54-12.55-9.46-10.17-6.85-20.74-13.01-31.96-18.03-6.92-3.1-14.02-5.77-21.28-7.88-5.97-1.73-12.06-3.06-18.19-4.22-6.25-1.19-12.55-2.02-18.82-2.4-8.73-.53-17.51-.67-26.3,.43-6.36,.8-12.66,1.73-18.96,2.93-7.68,1.46-15.14,3.65-22.46,6.25-8.66,3.07-17.06,6.81-25.17,11.2-12.14,6.58-23.44,14.41-33.86,23.4-14.19,12.25-27,25.85-38.32,40.84-5.52,7.31-10.76,14.8-15.43,22.65-6.81,11.46-12.98,23.29-18.64,35.37-2.46,5.25-.41,6.31,3.91,7.35,4.34,1.04,8.69,2.08,13,3.18,4.31,1.1,8.67,1.8,13.02,2.49,4.55,.73,9.18,.94,13.79,1.28,17.55,1.28,35.02,1.36,52.52-.93,7.61-1,15.12-2.3,22.61-3.93,6.31-1.38,12.49-3.18,18.58-5.23,8.06-2.72,15.96-5.88,23.32-10.27,5.65-3.37,11.19-6.87,16.06-11.33,2.88-2.64,5.65-5.41,8.53-8.06,2.8-2.58,4.12-2.57,6.87-.07,.69,.63,1.37,1.28,2.01,1.97,5.77,6.22,12.17,11.75,19.25,16.38,10.87,7.11,22.94,11.64,35.29,15.37,6.23,1.88,12.57,3.47,18.95,4.74,6.43,1.28,12.95,2.3,19.48,2.92,8.74,.84,17.5,1.62,26.41,1.05Zm-190.28,27.43c3.44-2.16,4.43-3.85,4.08-6.71-.4-3.17-3.13-5.57-7.24-5.72-5.74-.21-11.5-.04-17.25-.08-1.04,0-1.37,.36-1.37,1.39,.03,7.91,.02,15.81,.01,23.72,0,.66-.03,1.33,.93,1.3,7-.22,14.06,.7,21-.77,3.34-.71,5.35-3.52,5.35-6.75,0-3.65-2.38-5.3-5.52-6.38Zm111.26,39.34h.01c0,3.92,.03,7.84-.02,11.75-.01,1.13,.11,1.75,1.52,1.72,4.4-.09,8.8,.14,13.19-.07,5.15-.25,9.61-1.96,11.62-7.28,1.16-3.06,1.15-6.3,.52-9.46-1.1-5.58-4.16-8.55-9.77-9.33-5.32-.74-10.69-.14-16.04-.3-1.35-.04-1.01,.98-1.02,1.69-.03,3.76-.01,7.52-.01,11.27Zm121.22-24.94c1.15,.18,2.71-.2,4.28-.48,5.6-.99,9.37-4.93,10.2-10.59,1-6.84-1.22-12.06-6.61-14.55-5.48-2.53-11.18-2.56-16.7-.1-5.55,2.47-7.31,7.26-7.06,12.98,.24,5.46,2.76,9.43,7.89,11.51,2.39,.97,4.94,1.22,7.99,1.22Zm-229.65,38.84c1.52,.28,3.25-.18,4.96-.52,5.16-1.01,8.93-4.96,9.69-9.98,1.08-7.04-.93-12.2-6.06-14.86-4.84-2.51-9.99-2.59-15.14-1.11-6.08,1.74-9.22,6.42-9.11,13.26,.11,6.39,3.55,11,9.47,12.52,1.93,.49,3.91,.81,6.18,.69Zm155.12,.02c1.52,.21,3.26-.19,4.97-.55,5.13-1.06,8.77-4.95,9.59-10.1,1.07-6.7-.84-11.94-5.75-14.56-5.44-2.9-11.21-2.97-16.91-.75-5.46,2.12-7.96,6.78-7.64,13.55,.27,5.61,3.55,9.89,8.87,11.52,2.15,.66,4.36,.94,6.88,.89Zm-47.8-52.8c0,3.84,.08,7.68-.04,11.51-.05,1.61,.47,1.99,2.01,1.97,6.15-.09,12.31-.04,18.47-.04,4.63,0,4.58,0,4.51-4.67-.02-1.26-.35-1.63-1.61-1.61-4.16,.08-8.32-.08-12.47,.08-2.05,.08-1.72-1.17-1.65-2.3,.07-1.08-.73-2.7,1.59-2.58,2.71,.14,5.43,.03,8.15,.03,4.55,0,4.46,0,4.49-4.49,0-1.61-.6-1.81-1.95-1.78-3.6,.08-7.19,0-10.79,.04-1.1,.02-1.55-.24-1.54-1.45,0-1.2,.46-1.48,1.56-1.47,3.12,.05,6.23,.02,9.35,.02,4.51,0,4.46,0,4.45-4.48,0-1.25-.18-1.82-1.66-1.8-7.03,.08-14.07,.09-21.1,0-1.6-.02-1.81,.6-1.78,1.96,.08,3.68,.03,7.35,.03,11.03Zm-137.66-3.86c0-.64,0-1.28,0-1.92-.03-2.31,.83-5.44-.34-6.72-1.35-1.48-4.53-.25-6.89-.48-1.53-.15-2.05,.3-2.01,1.93,.12,4.55,.06,9.11,.04,13.67-.02,3.36-1.54,4.97-4.7,5.05-3.45,.08-5.2-1.55-5.28-5.02-.06-2.8,.04-5.6-.04-8.4-.06-2.36,1.03-5.61-.46-6.83-1.45-1.19-4.57-.35-6.96-.39-.32,0-.64,0-.96,0-.61,0-.83,.32-.81,.9,.22,5.9-.59,11.85,.49,17.71,.78,4.22,4.05,7.07,8.39,7.78,2.53,.41,5.07,.58,7.63,.48,7.74-.31,11.88-4.57,11.89-12.26,0-1.84,0-3.68,0-5.52Zm74.05,36.92c-.33-2.77-1.5-4.9-3.84-5.92-5.77-2.51-11.7-2.68-17.3,.32-4.77,2.55-4.7,8.4-.13,11.29,1.64,1.04,3.47,1.59,5.32,2.07,2.08,.54,4.17,1.04,6.23,1.66,1.15,.35,1.9,1.18,1.81,2.51-.08,1.22-.94,1.77-1.94,2.18-2.75,1.13-5.74-.04-6.85-2.84-.37-.93-.8-1.23-1.73-1.14-2.06,.19-4.13,.4-6.19,.45-1.09,.02-1.18,.46-.95,1.31,.88,3.29,2.69,5.84,6.05,6.85,4.36,1.32,8.81,1.47,13.23,.3,4.58-1.21,7.29-4.36,7.36-8.31,.07-3.68-2.2-6.22-6.91-7.77-.38-.12-.75-.26-1.14-.35-2.49-.57-4.98-1.1-7.46-1.72-.86-.22-1.71-.68-1.67-1.76,.04-1.03,.82-1.47,1.7-1.76,2.16-.72,4.4,.04,5.52,2.06,.45,.81,.85,1.22,1.8,1.13,2.3-.22,4.6-.37,7.13-.56Zm6.41-19.62c-3.61-8.74-7.06-17.04-10.46-25.38-.34-.84-.81-1.04-1.61-1.03-2.64,.03-5.28,0-7.91,.02-.71,0-1.29-.03-1.67,.91-3.26,8.06-6.61,16.08-9.94,24.11-.4,.97-.33,1.45,.91,1.4,1.84-.08,3.69-.16,5.51,.02,1.82,.18,2.77-.37,3.12-2.23,.18-.97,.24-2.25,1.96-2.16,2.63,.13,5.27,.07,7.91,.02,.86-.01,1.46,.24,1.53,1.1,.25,3.33,2.44,3.47,5.01,3.25,1.73-.14,3.49-.03,5.63-.03Zm55.17,38.88c-2.87-7-5.55-13.64-8.32-20.24-.85-2.03-1.08-4.85-2.82-5.85-1.63-.94-4.19-.27-6.35-.31-.64-.01-1.29,.08-1.92-.02-1.46-.24-2.07,.48-2.59,1.76-3.01,7.47-6.06,14.93-9.19,22.35-.72,1.71-.85,2.61,1.47,2.34,1.34-.16,2.73-.18,4.07,0,2.18,.29,3.49-.37,3.73-2.68,.14-1.34,.89-1.8,2.27-1.7,1.91,.13,3.85,.18,5.75,0,2.15-.21,3.55,.32,3.81,2.67,.15,1.36,.86,1.81,2.26,1.73,2.47-.13,4.95-.04,7.83-.04Zm104.88-57.66c-.51-.99-.87-1.78-1.32-2.51-3.19-5.16-8.32-5.71-13.64-5.56-6.43,.18-10.99,3.24-12.72,8.33-2.03,5.99-.65,12.45,3.83,15.96,4.87,3.82,10.53,3.63,16.2,2.29,3.5-.83,5.74-3.25,7.2-6.48,.62-1.37,.85-2.33-1.17-2.6-1.48-.2-2.94-.71-4.36-1.22-1.28-.46-1.87-.26-2.39,1.15-1.06,2.9-3.18,4.01-6.21,3.64-2.59-.31-4.04-1.79-4.58-4.74-.33-1.82-.35-3.65,.03-5.47,.51-2.43,1.89-4.06,4.35-4.52,2.42-.45,4.63,.01,6.16,2.18,.36,.52,.5,1.11,1.4,.92,2.32-.5,4.66-.9,7.23-1.39Zm-300,.03c-1.48-3.61-3.66-6.14-7.31-7.25-2.48-.76-5-.95-7.57-.87-6.58,.22-11.22,3.37-12.92,8.76-1.92,6.08-.25,12.65,4.54,15.98,4.86,3.37,10.38,3.22,15.87,1.81,3.39-.87,5.55-3.28,7-6.4,.73-1.56,.58-2.42-1.36-2.68-1.41-.19-2.79-.67-4.14-1.14-1.25-.44-1.89-.3-2.42,1.14-1.07,2.9-3.21,4.02-6.22,3.65-2.68-.33-4.11-1.83-4.62-4.97-.28-1.74-.28-3.49,.08-5.24,.5-2.45,1.9-4.06,4.34-4.52,2.41-.45,4.63-.01,6.14,2.19,.34,.5,.43,1.11,1.39,.89,2.31-.53,4.67-.88,7.2-1.34Zm151.83-7.64c-3.12,0-6.23,0-9.35,0-4.79,0-4.75,0-4.48,4.92,.06,1.06,.34,1.37,1.37,1.34,2.08-.07,4.16,.06,6.23-.05,1.34-.07,1.78,.33,1.74,1.71-.1,3.75-.05,7.51-.03,11.27,.02,2.3-.78,5.39,.39,6.7,1.34,1.52,4.5,.25,6.85,.53,1.71,.2,1.94-.57,1.91-2.02-.08-4.31-.03-8.63-.03-12.94q0-5.22,5.16-5.22c4.24,0,4.16,0,4.23-4.29,.02-1.59-.44-2.03-2.01-1.99-3.99,.11-7.99,.04-11.98,.04Zm86.95,0c-4.08,0-8.15-.02-12.23,.02-.6,0-1.62-.46-1.63,.75-.02,1.74-.37,3.69,.3,5.15,.43,.93,2.5,.24,3.83,.31,1.2,.07,2.41,.11,3.59,0,1.32-.13,1.58,.43,1.56,1.62-.06,3.76-.08,7.51,0,11.27,.05,2.37-1.06,5.62,.45,6.87,1.43,1.2,4.57,.29,6.95,.43,1.34,.08,1.77-.33,1.74-1.71-.09-4.47-.03-8.95-.03-13.43q0-5.05,5.1-5.05c4.35,0,4.27,0,4.29-4.45,0-1.56-.54-1.85-1.93-1.82-3.99,.08-7.99,.03-11.99,.03Zm-180.1,38.88h-9.11c-5.04,0-4.99,0-4.67,4.98,.07,1.12,.48,1.31,1.44,1.28,1.76-.05,3.53,.11,5.27-.05,1.98-.18,2.76,.26,2.67,2.51-.21,5.27-.01,10.54-.1,15.82-.02,1.44,.3,2.01,1.83,1.9,1.83-.14,3.68-.14,5.51,0,1.5,.11,1.89-.39,1.86-1.86-.1-4.47-.03-8.95-.03-13.42q0-4.91,4.99-4.91c4.45,0,4.36,0,4.4-4.35,.02-1.67-.58-1.96-2.07-1.93-3.99,.09-7.99,.03-11.98,.03Zm92.18,0h-9.35c-4.79,0-4.75,0-4.47,4.94,.06,1.09,.4,1.35,1.4,1.32,2.08-.06,4.16,.07,6.23-.05,1.4-.08,1.73,.42,1.71,1.75-.07,5.43,.03,10.87-.07,16.3-.03,1.59,.24,2.35,2.04,2.17,1.74-.17,3.52-.13,5.27,0,1.44,.1,1.93-.29,1.89-1.82-.11-4.47-.04-8.95-.04-13.42q0-4.94,4.96-4.94c4.56,0,4.5,0,4.43-4.55-.02-1.38-.45-1.75-1.79-1.72-4.07,.08-8.15,.03-12.22,.03Zm18.94-25.77h.01c0,3.68,.13,7.37-.05,11.04-.1,2,.64,2.34,2.42,2.3,5.36-.11,10.72-.04,16.08-.04,5.16,0,5.09,0,5.04-5.11-.01-1.48-.59-1.66-1.83-1.63-3.36,.07-6.73-.12-10.07,.08-2.11,.13-2.48-.64-2.43-2.55,.13-5.2,0-10.4,.07-15.6,.02-1.25-.34-1.68-1.61-1.62-1.91,.1-3.84,.12-5.76,0-1.46-.09-1.94,.34-1.9,1.86,.11,3.76,.04,7.52,.04,11.28Zm-165.09,.19h.01c0,3.76,.07,7.52-.04,11.28-.04,1.49,.39,1.89,1.87,1.87,5.52-.09,11.04-.04,16.56-.04,5.34,0,5.3,0,5.08-5.3-.05-1.18-.42-1.46-1.53-1.45-3.6,.06-7.2-.07-10.8,.06-1.62,.06-2.02-.46-1.99-2,.08-5.28-.01-10.56,.06-15.84,.02-1.38-.2-2.05-1.79-1.92-1.83,.15-3.69,.15-5.51,0-1.67-.14-1.98,.55-1.95,2.05,.09,3.76,.03,7.52,.03,11.28Zm252.36-.2c0,3.92,.05,7.84-.03,11.76-.03,1.29,.39,1.63,1.62,1.58,2.08-.09,4.16-.08,6.24,0,1.05,.04,1.36-.3,1.35-1.35-.04-7.92-.04-15.84,0-23.75,0-1.07-.34-1.37-1.37-1.33-2.08,.07-4.16,.09-6.24,0-1.25-.06-1.63,.33-1.61,1.6,.08,3.84,.03,7.68,.03,11.52Z"/><path class="cls-10" d="M250.51,269.97c49.75,0,99.5,0,149.24,0,20.55,0,41.11-.05,61.66-.07,5.45,0,6.79,1.13,7.38,6.54,1.26,11.68,2.24,23.39,2.54,35.15,.4,15.75,.24,31.5-1.13,47.2-1.58,18.08-4.31,35.98-8.38,53.68-5.85,25.44-14,50.07-25.07,73.73-16.7,35.7-39.37,67-69.26,92.83-23.97,20.72-51.17,35.24-82.38,41.85-36.92,7.82-72.4,3.56-106.51-12.46-26.49-12.45-49.13-30.02-68.46-51.89-27.24-30.81-46.7-66.14-60.16-104.87-9.16-26.34-14.99-53.46-18.18-81.13-3.02-26.2-3.42-52.47-1.23-78.76,.44-5.33,.93-10.67,1.5-15.99,.53-4.95,1.66-5.88,6.79-5.88,65.82,.02,131.65,.05,197.47,.07,4.72,0,9.44,0,14.16,0Zm127.93,194.04c-1.68-.52-3.01-.69-4.38-.7-9.51-.1-19.02-.25-28.54-.34-9.36-.09-18.72,.08-28.07-.29-5.06-.2-8.6,1.47-11.63,5.51-26.18,34.89-52.46,69.69-78.7,104.54-3.11,4.13-6.14,8.33-9.26,12.56,1.2,.64,2.23,.87,3.36,.87,19.67-.05,39.35-.23,59.02,0,4.72,.05,7.59-1.9,10.19-5.36,22.58-30,45.22-59.96,67.83-89.93,6.68-8.85,13.32-17.72,20.17-26.83Zm-139.03-60.35c5.73,.26,11.1-.13,16.44,.47,2.58,.29,4.52,1.54,6.04,3.47,1.7,2.16,1.24,3.98-1.21,5.23-1.35,.69-2.81,1.16-4.12,1.9-2.65,1.5-3.7,3.92-3.16,6.88,.5,2.76,4.38,5.74,8.09,6.19,2.22,.27,4.43,.53,6.65,.73,5.88,.53,11.76,1.32,17.65,1.44,5.57,.11,11.17-.36,16.74-.82,5.01-.41,9.99-1.15,14.5-3.67,3.07-1.71,4.31-4.54,4.04-7.82-.24-2.84-2.72-4.03-5.11-4.74-3.7-1.11-6.25-3.3-7.92-6.76-2.95-6.11-5.91-12.22-9.04-18.24-9.88-18.99-20.51-37.55-31.75-55.76-5.76-9.33-14.5-13.65-25.56-12.83-9.57,.71-16.72,8.28-16.59,17.75,.09,6.92-1.41,13.48-4.12,19.76-6.41,14.88-13.98,29.21-20.97,43.82-3.18,6.63-7.32,11.85-14.79,13.9-3.37,.93-4.73,3.71-4.24,7.1,.51,3.51,2.92,5.78,6.32,6.12,8.83,.89,17.7,.93,26.56,1.25,4.17,.15,8.23-.75,12.01-2.67,4.93-2.5,5.6-7.28,1.46-10.73-1.54-1.28-3.08-2.55-4.62-3.82-2.19-1.81-2.4-2.83-1.08-5.38,1.04-2,2.81-2.76,4.94-2.77,4.4-.03,8.8,0,12.81,0Zm-58.01-52.04c0-7.69-2.09-13.86-6.4-19.88-3.28-4.59-7.65-6.39-13.11-5.54-3.52,.55-6.83,.04-10.05-1.32-10.49-4.44-21.37-6.39-32.73-4.86-11.88,1.6-22.48,6.44-32.25,13.21-21.52,14.93-28.06,42.13-15.9,65.3,14.05,26.78,47.12,36.03,71.59,29.53,7.63-2.03,14.73-5.7,22.56-7.09,1.03-.18,2.04-.92,2.91-1.59,5.95-4.66,9.31-10.89,10.35-18.27,.47-3.38-.68-6.63-3.74-8.54-2.97-1.85-5.8-.69-8.45,1.15-1.84,1.27-3.7,2.54-5.68,3.55-11.82,6.06-23.83,6.94-35.28-.42-13.65-8.78-18.35-22.31-17.52-37.82,.48-8.97,7.05-15.48,15.66-16.54,8.67-1.07,16.26,1.55,22.3,8.04,3.44,3.7,6,8.07,8.94,12.16,5.92,8.23,15.16,7.32,21.07,2.74,4.55-3.53,5.99-8.46,5.75-13.8Zm212.1,24.31h.02c0-8.32,0-16.63,0-24.95,0-2.37,.88-4.34,2.48-6.04,.99-1.05,2.05-1.31,3.45-.75,2.15,.86,3.88,2.22,5.26,4.02,1.89,2.47,3.64,5.05,5.56,7.5,3.23,4.12,7.43,5.76,12.66,4.9,6.29-1.03,10.13-4.8,10.35-10.97,.34-9.35-2.57-17.58-9.22-24.36-2.27-2.31-4.71-4.34-8.02-4.88-2.84-.46-5.69-.66-8.58-.32-4.99,.59-9.99,1.48-14.99,1.54-16.94,.23-33.89,.41-50.79-1.22-2.94-.28-5.9-.24-8.83,.39-3.04,.65-5.94,1.83-7.94,4.16-5.86,6.84-10.12,14.63-11.08,23.67-.97,9.17,7.15,14.69,15.68,11.13,3.61-1.51,6.15-4.17,8.39-7.25,1.88-2.58,3.7-5.25,6.44-7.03,1.45-.95,3.12-2.3,4.82-1.39,1.91,1.01,2.57,3.16,2.87,5.28,.03,.23-.04,.48-.04,.71-.3,16.62-.95,33.22-1.51,49.83-.22,6.53-3.98,10.77-9.63,11.74-5.46,.95-7.08,6.8-3.24,10.83,2.19,2.3,4.84,3.96,8.1,4.24,11.93,1.03,23.83,2.48,35.83,2.6,7.37,.08,14.37-1.7,21.33-3.79,2.56-.77,4.58-2.37,5.05-5.22,.5-3.05-.72-5.45-3.12-7.31-1.46-1.13-3.1-1.94-4.72-2.8-4.31-2.28-6.67-5.72-6.6-10.78,.1-7.84,.03-15.67,.03-23.51Zm-227.01,164.39c1.89,.51,3.39,.6,4.91,.59,19.82-.14,39.64,.26,59.46-.21,3.09-.07,5.34-1.19,7.14-3.58,17.8-23.57,35.61-47.13,53.39-70.72,.54-.72,1.74-1.47,1.18-2.38-.42-.68-1.67-.71-2.66-.73-6.79-.1-13.57-.15-20.36-.28-13.1-.25-26.22-.04-39.32-.26-3.86-.06-6.41,1.39-8.66,4.4-13.17,17.57-26.47,35.05-39.7,52.57-5.09,6.74-10.12,13.54-15.38,20.58Zm-54.6-38.48c1.8,.94,3.39,.94,5,.93,19.43-.04,38.86-.12,58.29-.06,3.54,.01,6.08-1.36,8.19-4.05,8.53-10.87,16.65-22.05,24.9-33.13,1.25-1.67,.79-2.15-1-2.2-4.39-.14-8.78-.34-13.17-.36-15.67-.07-31.34,.02-47.01-.18-4.24-.05-7.16,1.69-9.56,4.86-3.62,4.77-7.28,9.52-10.87,14.31-4.92,6.57-9.8,13.18-14.77,19.87Z"/><path class="cls-9" d="M375.84,181.53c-8.91,.57-17.67-.22-26.41-1.05-6.53-.62-13.05-1.64-19.48-2.92-6.38-1.27-12.72-2.86-18.95-4.74-12.35-3.73-24.42-8.27-35.29-15.37-7.08-4.63-13.48-10.16-19.25-16.38-.64-.69-1.31-1.34-2.01-1.97-2.75-2.5-4.07-2.52-6.87,.07-2.88,2.65-5.64,5.42-8.53,8.06-4.87,4.46-10.41,7.96-16.06,11.33-7.36,4.39-15.26,7.55-23.32,10.27-6.09,2.05-12.27,3.85-18.58,5.23-7.49,1.64-15,2.94-22.61,3.93-17.49,2.3-34.97,2.22-52.52,.93-4.61-.34-9.24-.55-13.79-1.28-4.35-.69-8.72-1.39-13.02-2.49-4.32-1.1-8.66-2.14-13-3.18-4.32-1.04-6.37-2.1-3.91-7.35,5.66-12.08,11.83-23.91,18.64-35.37,4.67-7.85,9.91-15.34,15.43-22.65,11.32-15,24.13-28.59,38.32-40.84,10.42-9,21.72-16.82,33.86-23.4,8.1-4.39,16.5-8.13,25.17-11.2,7.32-2.6,14.77-4.79,22.46-6.25,6.3-1.2,12.6-2.13,18.96-2.93,8.78-1.1,17.57-.96,26.3-.43,6.27,.38,12.58,1.21,18.82,2.4,6.14,1.16,12.23,2.49,18.19,4.22,7.26,2.11,14.36,4.77,21.28,7.88,11.22,5.03,21.79,11.19,31.96,18.03,4.34,2.92,8.43,6.23,12.55,9.46,8.76,6.87,16.86,14.48,24.33,22.73,9.25,10.22,17.71,21.04,25.46,32.49,8.49,12.54,15.75,25.71,22.58,39.16,1.8,3.54,3.15,7.31,4.65,11,.78,1.92,.08,3.38-1.91,4.06-4.99,1.71-10.17,2.67-15.28,3.91-6.55,1.58-13.24,2.25-19.86,3.41-.39,.07-.79,.16-1.18,.18-9.08,.46-18.13,1.74-27.14,1.05ZM203.53,69.01c-3.03,1.72-6.58,1.99-9.89,3.28,.85,1.18,1.91,.82,2.79,.89,2.43,.18,3.57,1.42,3.57,3.83-.02,9.97,.05,19.95-.07,29.92-.04,3.31-.99,4.04-4.27,4.67-1.21,.23-2.6,.02-3.91,1.22h21.06c-1.09-1.1-2.46-.96-3.69-1.31-1.46-.42-3.29-.34-3.72-2.4,0-12.74,0-25.49,0-38.23,0-.48,.06-.97-.03-1.43-.28-1.48-.94-1.55-1.85-.44Zm106.64,11.89c-.39-1.3-.67-2.64-1.2-3.88-2.04-4.82-5.34-8.15-10.86-8.48-9.71-.58-16.66,9.13-13.63,18.75,2.11,6.71,9.93,11.23,16.84,6.75,.88-.57,1.74-1.35,2.99-1.33,0,.42,.04,.74,0,1.04-.1,.55-.23,1.09-.39,1.63-2.57,8.49-7.61,14.65-16.37,17.29-.46,.14-1.31,.11-1.1,.94,.21,.81,.96,.42,1.42,.33,3.05-.64,6.06-1.38,8.75-3.09,7.57-4.82,12.09-11.65,13.65-20.47,.41-.14,.67-.43,.68-.86,.01-2.53,.02-5.06,.01-7.59,0-.52-.23-.91-.79-1Zm-40.98,8.38c1.54-1.24,3.01-2.34,4.38-3.55,3.28-2.89,4.17-7.38,2.33-11.32-2.56-5.47-9.91-7.62-15.67-4.59-5.69,2.99-7.72,10.03-4.48,15.39,1.48,2.45,3.71,4.11,6.08,5.85-1.72,1.15-3.31,2.17-4.86,3.25-2.02,1.41-3.5,3.23-4.14,5.68-1.65,6.33,2.54,12.27,9.68,13.68,6.05,1.2,12.45-1.92,14.79-7.21,2.42-5.48,.86-10.46-4.6-14.62-1.13-.86-2.29-1.68-3.51-2.56Zm-28.12,2.79c-2.32,10.03-7.05,17.27-16.74,20.46-.6,.2-1.81,.07-1.59,.99,.26,1.09,1.36,.42,2.05,.3,5.72-1.01,10.39-3.89,14.33-8.1,7.53-8.03,9.99-20.79,5.63-29.83-2.14-4.43-5.55-7.2-10.62-7.38-8.96-.32-15.63,8.12-13.76,17.21,1.72,8.38,10.54,13.08,17.71,8.01,.77-.55,1.65-.93,2.99-1.67Z"/><path class="cls-8" d="M185.56,208.96c3.14,1.08,5.52,2.73,5.52,6.38,0,3.23-2.01,6.04-5.35,6.75-6.94,1.47-13.99,.55-21,.77-.96,.03-.93-.64-.93-1.3,0-7.91,.02-15.81-.01-23.72,0-1.03,.33-1.4,1.37-1.39,5.75,.04,11.5-.13,17.25,.08,4.11,.15,6.84,2.54,7.24,5.72,.36,2.87-.64,4.55-4.08,6.71Zm-8.68,2.87c-1.08,0-1.87,.01-2.67,0-.7-.02-1.37,.06-1.22,.98,.2,1.25-.8,3.32,.58,3.62,2.25,.49,4.75,.63,7.05-.29,.87-.35,1.36-1.07,1.31-2.08-.05-1.03-.67-1.53-1.56-1.88-1.23-.49-2.51-.32-3.5-.35Zm-.66-4.78c.68-.03,1.57,0,2.43-.13,1.21-.18,2.15-.82,2.11-2.17-.04-1.24-.98-1.81-2.09-1.93-1.18-.13-2.41,.04-3.58-.14-1.95-.3-2.08,.7-2.2,2.29-.21,2.86,1.76,1.89,3.32,2.08Z"/><path class="cls-3" d="M296.83,248.3c0-3.76-.02-7.52,.01-11.27,0-.71-.33-1.73,1.02-1.69,5.35,.16,10.72-.44,16.04,.3,5.61,.78,8.67,3.75,9.77,9.33,.62,3.16,.63,6.4-.52,9.46-2.01,5.32-6.47,7.03-11.62,7.28-4.39,.21-8.79-.02-13.19,.07-1.4,.03-1.53-.59-1.52-1.72,.05-3.92,.02-7.84,.02-11.75h-.01Zm9.2,.27c0,1.84,0,3.68,0,5.52,0,.45-.15,.97,.33,1.31,1.77,1.27,7.19-.45,7.93-2.67,.92-2.79,.93-5.69-.16-8.45-.82-2.08-4.15-3.39-7.13-2.63-2.2,.55-.61,2.54-.94,3.82-.25,.98-.05,2.07-.04,3.1Z"/><path class="cls-8" d="M418.04,223.36c-3.04,0-5.6-.25-7.99-1.22-5.14-2.08-7.66-6.06-7.89-11.51-.25-5.72,1.51-10.51,7.06-12.98,5.51-2.46,11.22-2.43,16.7,.1,5.38,2.49,7.61,7.7,6.61,14.55-.83,5.66-4.6,9.6-10.2,10.59-1.57,.28-3.14,.65-4.28,.48Zm-6.79-13.12c.02,.23,.02,1.03,.16,1.81,.56,3.26,2.67,5.02,5.96,5.04,3.46,.02,5.32-1.52,5.97-4.94,.35-1.83,.4-3.65-.04-5.46-.48-1.98-1.57-3.4-3.61-4.1-4.88-1.66-8.45,1.29-8.45,7.64Z"/><path class="cls-8" d="M188.39,262.2c-2.28,.12-4.26-.19-6.18-.69-5.92-1.52-9.36-6.13-9.47-12.52-.11-6.84,3.03-11.52,9.11-13.26,5.15-1.48,10.3-1.41,15.14,1.11,5.13,2.66,7.13,7.82,6.06,14.86-.77,5.02-4.54,8.97-9.69,9.98-1.71,.34-3.44,.8-4.96,.52Zm-6.54-13.27c-.04,1.03,.11,2.38,.62,3.66,.95,2.36,3.28,3.6,6.28,3.38,2.72-.2,4.53-1.69,5.09-4.26,.43-1.97,.56-3.96,.13-5.95-.6-2.77-2.52-4.46-5.32-4.67-4.43-.33-6.79,2.27-6.79,7.83Z"/><path class="cls-8" d="M343.51,262.22c-2.51,.05-4.72-.23-6.88-.89-5.32-1.63-8.6-5.9-8.87-11.52-.33-6.77,2.18-11.43,7.64-13.55,5.69-2.21,11.47-2.15,16.91,.75,4.91,2.62,6.82,7.86,5.75,14.56-.82,5.15-4.46,9.04-9.59,10.1-1.71,.35-3.45,.76-4.97,.55Zm-6.65-13.32c-.05,1.06,.1,2.41,.6,3.69,.87,2.22,3,3.46,5.79,3.38,2.41-.06,4.41-.9,5.29-3.34,.89-2.47,.95-5.04,.26-7.55-.52-1.88-1.78-3.12-3.73-3.69-4.87-1.43-8.23,1.49-8.21,7.51Z"/><path class="cls-3" d="M295.71,209.42c0-3.68,.05-7.36-.03-11.03-.03-1.36,.18-1.99,1.78-1.96,7.03,.09,14.07,.09,21.1,0,1.48-.02,1.65,.55,1.66,1.8,.02,4.48,.06,4.48-4.45,4.48-3.12,0-6.24,.04-9.35-.02-1.1-.02-1.55,.27-1.56,1.47,0,1.21,.45,1.47,1.54,1.45,3.6-.05,7.2,.03,10.79-.04,1.35-.03,1.96,.17,1.95,1.78-.02,4.49,.06,4.49-4.49,4.49-2.72,0-5.44,.11-8.15-.03-2.32-.12-1.52,1.5-1.59,2.58-.07,1.13-.4,2.38,1.65,2.3,4.15-.16,8.31,0,12.47-.08,1.26-.02,1.59,.34,1.61,1.61,.07,4.67,.13,4.67-4.51,4.67-6.16,0-12.31-.05-18.47,.04-1.54,.02-2.06-.35-2.01-1.97,.12-3.83,.04-7.67,.04-11.51Z"/><path class="cls-8" d="M158.05,205.56c0,1.84,0,3.68,0,5.52-.02,7.69-4.16,11.96-11.89,12.26-2.56,.1-5.1-.07-7.63-.48-4.34-.71-7.61-3.56-8.39-7.78-1.08-5.86-.27-11.81-.49-17.71-.02-.59,.2-.9,.81-.9,.32,0,.64-.01,.96,0,2.39,.05,5.51-.8,6.96,.39,1.49,1.22,.39,4.47,.46,6.83,.07,2.8-.02,5.6,.04,8.4,.08,3.47,1.83,5.1,5.28,5.02,3.15-.08,4.68-1.69,4.7-5.05,.02-4.56,.09-9.12-.04-13.67-.04-1.63,.48-2.08,2.01-1.93,2.37,.23,5.54-1,6.89,.48,1.17,1.28,.31,4.41,.34,6.72,0,.64,0,1.28,0,1.92Z"/><path class="cls-8" d="M232.1,242.48c-2.53,.2-4.83,.35-7.13,.56-.94,.09-1.35-.32-1.8-1.13-1.12-2.03-3.36-2.78-5.52-2.06-.88,.29-1.66,.73-1.7,1.76-.04,1.08,.82,1.55,1.67,1.76,2.47,.62,4.97,1.15,7.46,1.72,.39,.09,.76,.23,1.14,.35,4.72,1.55,6.98,4.09,6.91,7.77-.07,3.95-2.78,7.1-7.36,8.31-4.42,1.17-8.87,1.02-13.23-.3-3.36-1.02-5.17-3.56-6.05-6.85-.23-.85-.14-1.28,.95-1.31,2.07-.05,4.13-.25,6.19-.45,.93-.09,1.36,.21,1.73,1.14,1.12,2.8,4.11,3.97,6.85,2.84,1-.41,1.86-.96,1.94-2.18,.09-1.33-.65-2.15-1.81-2.51-2.05-.63-4.15-1.12-6.23-1.66-1.85-.48-3.68-1.03-5.32-2.07-4.56-2.9-4.64-8.74,.13-11.29,5.6-2.99,11.53-2.82,17.3-.32,2.34,1.02,3.51,3.15,3.84,5.92Z"/><path class="cls-3" d="M238.51,222.86c-2.14,0-3.9-.12-5.63,.03-2.57,.21-4.77,.07-5.01-3.25-.06-.87-.67-1.12-1.53-1.1-2.64,.04-5.28,.11-7.91-.02-1.71-.09-1.77,1.19-1.96,2.16-.35,1.86-1.3,2.41-3.12,2.23-1.82-.18-3.68-.1-5.51-.02-1.24,.05-1.31-.43-.91-1.4,3.33-8.03,6.68-16.05,9.94-24.11,.38-.94,.96-.91,1.67-.91,2.64,0,5.28,.01,7.91-.02,.8,0,1.26,.19,1.61,1.03,3.39,8.33,6.85,16.64,10.46,25.38Zm-16.03-19.53c-.83,1.03-.98,2.16-1.33,3.2q-1.8,5.42,3.87,5.28c.13,0,.26-.11,.53-.23-1.01-2.71-2.02-5.42-3.07-8.24Z"/><path class="cls-3" d="M293.68,261.74c-2.88,0-5.36-.1-7.83,.04-1.4,.08-2.11-.37-2.26-1.73-.26-2.34-1.66-2.88-3.81-2.67-1.9,.19-3.84,.14-5.75,0-1.38-.1-2.13,.36-2.27,1.7-.25,2.31-1.55,2.97-3.73,2.68-1.33-.18-2.73-.16-4.07,0-2.32,.28-2.19-.62-1.47-2.34,3.13-7.42,6.18-14.88,9.19-22.35,.52-1.28,1.12-2,2.59-1.76,.62,.1,1.28,.01,1.92,.02,2.15,.03,4.72-.63,6.35,.31,1.74,1,1.97,3.82,2.82,5.85,2.77,6.6,5.45,13.24,8.32,20.24Zm-12.89-11.15c-1.07-2.88-2.07-5.59-3.22-8.69-.5,1.43-.87,2.47-1.22,3.52q-1.82,5.51,4.44,5.18Z"/><path class="cls-8" d="M398.56,204.08c-2.56,.48-4.91,.88-7.23,1.39-.9,.2-1.04-.4-1.4-.92-1.52-2.17-3.74-2.63-6.16-2.18-2.46,.45-3.85,2.09-4.35,4.52-.38,1.83-.36,3.65-.03,5.47,.54,2.94,1.99,4.42,4.58,4.74,3.03,.37,5.15-.74,6.21-3.64,.52-1.41,1.11-1.6,2.39-1.15,1.42,.51,2.88,1.02,4.36,1.22,2.02,.27,1.78,1.22,1.17,2.6-1.45,3.23-3.69,5.65-7.2,6.48-5.66,1.34-11.33,1.52-16.2-2.29-4.48-3.51-5.87-9.98-3.83-15.96,1.73-5.09,6.29-8.15,12.72-8.33,5.33-.15,10.45,.4,13.64,5.56,.45,.73,.8,1.53,1.32,2.51Z"/><path class="cls-8" d="M98.55,204.11c-2.53,.46-4.88,.81-7.2,1.34-.95,.22-1.05-.4-1.39-.89-1.52-2.21-3.73-2.64-6.14-2.19-2.45,.46-3.84,2.08-4.34,4.52-.36,1.75-.36,3.5-.08,5.24,.51,3.14,1.94,4.64,4.62,4.97,3.01,.37,5.15-.75,6.22-3.65,.53-1.44,1.17-1.58,2.42-1.14,1.35,.47,2.73,.96,4.14,1.14,1.94,.26,2.09,1.12,1.36,2.68-1.45,3.12-3.61,5.53-7,6.4-5.49,1.41-11.01,1.56-15.87-1.81-4.79-3.33-6.45-9.9-4.54-15.98,1.7-5.39,6.34-8.54,12.92-8.76,2.56-.09,5.09,.11,7.57,.87,3.65,1.12,5.82,3.64,7.31,7.25Z"/><path class="cls-8" d="M250.39,196.47c4,0,7.99,.07,11.98-.04,1.57-.04,2.03,.39,2.01,1.99-.06,4.29,.02,4.29-4.23,4.29q-5.16,0-5.16,5.22c0,4.31-.05,8.63,.03,12.94,.03,1.45-.21,2.23-1.91,2.02-2.35-.28-5.51,.99-6.85-.53-1.17-1.32-.37-4.4-.39-6.7-.03-3.76-.07-7.51,.03-11.27,.04-1.38-.4-1.78-1.74-1.71-2.07,.1-4.16-.02-6.23,.05-1.03,.03-1.32-.28-1.37-1.34-.27-4.93-.31-4.92,4.48-4.92,3.12,0,6.23,0,9.35,0Z"/><path class="cls-8" d="M337.33,196.46c4,0,7.99,.05,11.99-.03,1.39-.03,1.94,.26,1.93,1.82-.02,4.45,.06,4.45-4.29,4.45q-5.1,0-5.1,5.05c0,4.48-.05,8.95,.03,13.43,.03,1.38-.4,1.79-1.74,1.71-2.38-.14-5.52,.76-6.95-.43-1.51-1.26-.4-4.5-.45-6.87-.08-3.75-.06-7.51,0-11.27,.02-1.19-.24-1.75-1.56-1.62-1.19,.11-2.4,.07-3.59,0-1.33-.07-3.4,.62-3.83-.31-.67-1.46-.32-3.41-.3-5.15,.01-1.21,1.03-.74,1.63-.75,4.08-.04,8.15-.02,12.23-.02Z"/><path class="cls-8" d="M157.23,235.34c3.99,0,7.99,.06,11.98-.03,1.49-.04,2.08,.26,2.07,1.93-.04,4.35,.05,4.35-4.4,4.35q-4.99,0-4.99,4.91c0,4.47-.06,8.95,.03,13.42,.03,1.47-.36,1.97-1.86,1.86-1.83-.13-3.68-.13-5.51,0-1.53,.11-1.86-.45-1.83-1.9,.09-5.27-.11-10.55,.1-15.82,.09-2.26-.69-2.7-2.67-2.51-1.74,.16-3.51,0-5.27,.05-.95,.03-1.36-.15-1.44-1.28-.32-4.98-.37-4.98,4.67-4.98,3.04,0,6.07,0,9.11,0Z"/><path class="cls-8" d="M249.41,235.34c4.07,0,8.15,.05,12.22-.03,1.33-.03,1.76,.34,1.79,1.72,.07,4.56,.13,4.56-4.43,4.55q-4.96,0-4.96,4.94c0,4.47-.07,8.95,.04,13.42,.04,1.53-.45,1.92-1.89,1.82-1.75-.12-3.53-.16-5.27,0-1.8,.17-2.07-.59-2.04-2.17,.09-5.43,0-10.87,.07-16.3,.02-1.33-.31-1.83-1.71-1.75-2.07,.12-4.15-.01-6.23,.05-1,.03-1.34-.23-1.4-1.32-.28-4.95-.32-4.94,4.47-4.94,3.12,0,6.23,0,9.35,0Z"/><path class="cls-3" d="M268.34,209.57c0-3.76,.07-7.52-.04-11.28-.04-1.51,.44-1.95,1.9-1.86,1.91,.12,3.84,.1,5.76,0,1.27-.07,1.62,.36,1.61,1.62-.07,5.2,.06,10.4-.07,15.6-.05,1.91,.32,2.68,2.43,2.55,3.35-.2,6.72,0,10.07-.08,1.24-.03,1.81,.15,1.83,1.63,.05,5.11,.12,5.11-5.04,5.11-5.36,0-10.72-.07-16.08,.04-1.78,.04-2.52-.3-2.42-2.3,.18-3.67,.05-7.36,.05-11.04h-.01Z"/><path class="cls-3" d="M103.25,209.75c0-3.76,.06-7.52-.03-11.28-.04-1.49,.28-2.18,1.95-2.05,1.83,.15,3.69,.15,5.51,0,1.6-.13,1.81,.54,1.79,1.92-.07,5.28,.02,10.56-.06,15.84-.02,1.54,.38,2.06,1.99,2,3.59-.13,7.2,0,10.8-.06,1.11-.02,1.48,.26,1.53,1.45,.21,5.3,.26,5.3-5.08,5.3-5.52,0-11.04-.05-16.56,.04-1.48,.02-1.91-.38-1.87-1.87,.11-3.76,.04-7.52,.04-11.28h-.01Z"/><path class="cls-3" d="M355.61,209.56c0-3.84,.05-7.68-.03-11.52-.03-1.27,.35-1.66,1.61-1.6,2.08,.1,4.16,.08,6.24,0,1.03-.04,1.38,.26,1.37,1.33-.04,7.92-.04,15.84,0,23.75,0,1.05-.3,1.39-1.35,1.35-2.08-.07-4.16-.09-6.24,0-1.23,.05-1.65-.28-1.62-1.58,.09-3.92,.03-7.84,.03-11.76Z"/><path class="cls-1" d="M378.44,464.01c-6.85,9.11-13.5,17.98-20.17,26.83-22.61,29.98-45.25,59.93-67.83,89.93-2.61,3.47-5.47,5.42-10.19,5.36-19.67-.23-39.34-.04-59.02,0-1.13,0-2.16-.23-3.36-.87,3.12-4.24,6.15-8.43,9.26-12.56,26.24-34.84,52.53-69.65,78.7-104.54,3.03-4.03,6.57-5.7,11.63-5.51,9.34,.37,18.71,.2,28.07,.29,9.51,.09,19.02,.24,28.54,.34,1.37,.01,2.7,.18,4.38,.7Z"/><path class="cls-1" d="M239.41,403.67c-4.01,0-8.41-.02-12.81,0-2.13,.01-3.9,.78-4.94,2.77-1.32,2.55-1.11,3.57,1.08,5.38,1.54,1.27,3.08,2.54,4.62,3.82,4.14,3.45,3.47,8.23-1.46,10.73-3.79,1.92-7.85,2.83-12.01,2.67-8.86-.32-17.73-.36-26.56-1.25-3.4-.34-5.81-2.61-6.32-6.12-.49-3.39,.87-6.18,4.24-7.1,7.47-2.06,11.61-7.27,14.79-13.9,6.99-14.6,14.56-28.93,20.97-43.82,2.7-6.28,4.21-12.84,4.12-19.76-.13-9.47,7.02-17.04,16.59-17.75,11.06-.82,19.8,3.5,25.56,12.83,11.24,18.2,21.88,36.77,31.75,55.76,3.13,6.02,6.09,12.13,9.04,18.24,1.67,3.45,4.22,5.65,7.92,6.76,2.38,.71,4.87,1.9,5.11,4.74,.27,3.27-.98,6.1-4.04,7.82-4.5,2.52-9.48,3.26-14.5,3.67-5.57,.45-11.16,.93-16.74,.82-5.89-.12-11.77-.91-17.65-1.44-2.22-.2-4.44-.47-6.65-.73-3.71-.45-7.59-3.43-8.09-6.19-.54-2.96,.51-5.38,3.16-6.88,1.31-.74,2.77-1.21,4.12-1.9,2.45-1.25,2.91-3.07,1.21-5.23-1.52-1.93-3.47-3.18-6.04-3.47-5.34-.6-10.71-.21-16.44-.47Zm15.2-20.24c.02-.23,.12-.49,.04-.68-2.55-6.68-5.68-13.03-10.63-18.32-1.51-1.61-4.96-1.62-6.07,.26-2.83,4.82-5.01,9.98-6.72,15.31-.58,1.82,.56,3.39,2.24,3.41,7.03,.05,14.06,.02,21.13,.02Z"/><path class="cls-1" d="M181.4,351.62c.24,5.34-1.2,10.27-5.75,13.8-5.91,4.58-15.15,5.49-21.07-2.74-2.94-4.08-5.49-8.45-8.94-12.16-6.04-6.5-13.63-9.12-22.3-8.04-8.61,1.06-15.18,7.58-15.66,16.54-.83,15.5,3.87,29.04,17.52,37.82,11.45,7.36,23.46,6.48,35.28,.42,1.98-1.02,3.85-2.28,5.68-3.55,2.65-1.84,5.48-3,8.45-1.15,3.06,1.91,4.21,5.16,3.74,8.54-1.03,7.38-4.4,13.61-10.35,18.27-.86,.68-1.87,1.41-2.91,1.59-7.83,1.39-14.93,5.06-22.56,7.09-24.47,6.51-57.54-2.75-71.59-29.53-12.16-23.17-5.61-50.38,15.9-65.3,9.77-6.78,20.37-11.61,32.25-13.21,11.35-1.53,22.23,.42,32.73,4.86,3.22,1.36,6.53,1.87,10.05,1.32,5.46-.85,9.83,.96,13.11,5.54,4.31,6.03,6.41,12.2,6.4,19.88Z"/><path class="cls-1" d="M393.5,375.93c0,7.84,.08,15.67-.03,23.51-.07,5.06,2.29,8.5,6.6,10.78,1.62,.86,3.26,1.67,4.72,2.8,2.41,1.86,3.63,4.25,3.12,7.31-.47,2.85-2.49,4.45-5.05,5.22-6.95,2.09-13.95,3.86-21.33,3.79-12-.13-23.9-1.57-35.83-2.6-3.27-.28-5.92-1.94-8.1-4.24-3.83-4.03-2.21-9.89,3.24-10.83,5.64-.98,9.41-5.22,9.63-11.74,.56-16.61,1.21-33.21,1.51-49.83,0-.24,.08-.48,.04-.71-.31-2.12-.96-4.27-2.87-5.28-1.71-.91-3.37,.45-4.82,1.39-2.74,1.78-4.56,4.44-6.44,7.03-2.24,3.08-4.78,5.74-8.39,7.25-8.53,3.56-16.66-1.96-15.68-11.13,.96-9.04,5.22-16.83,11.08-23.67,1.99-2.33,4.9-3.51,7.94-4.16,2.92-.63,5.89-.67,8.83-.39,16.9,1.63,33.85,1.45,50.79,1.22,5-.07,10-.95,14.99-1.54,2.89-.34,5.74-.14,8.58,.32,3.31,.54,5.75,2.57,8.02,4.88,6.65,6.77,9.55,15,9.22,24.36-.22,6.17-4.06,9.94-10.35,10.97-5.23,.86-9.43-.77-12.66-4.9-1.92-2.45-3.67-5.03-5.56-7.5-1.38-1.8-3.11-3.16-5.26-4.02-1.4-.56-2.46-.3-3.45,.75-1.59,1.7-2.48,3.67-2.48,6.04,.01,8.32,0,16.63,0,24.95h-.02Z"/><path class="cls-1" d="M166.49,540.32c5.26-7.05,10.29-13.84,15.38-20.58,13.23-17.53,26.53-35,39.7-52.57,2.26-3.01,4.8-4.46,8.66-4.4,13.11,.22,26.22,.01,39.32,.26,6.79,.13,13.57,.18,20.36,.28,.99,.01,2.24,.05,2.66,.73,.56,.91-.64,1.66-1.18,2.38-17.79,23.58-35.6,47.14-53.39,70.72-1.8,2.39-4.06,3.51-7.14,3.58-19.82,.47-39.64,.07-59.46,.21-1.52,.01-3.02-.08-4.91-.59Z"/><path class="cls-1" d="M111.89,501.83c4.97-6.69,9.85-13.3,14.77-19.87,3.59-4.79,7.25-9.54,10.87-14.31,2.4-3.17,5.32-4.91,9.56-4.86,15.67,.2,31.34,.11,47.01,.18,4.39,.02,8.78,.22,13.17,.36,1.78,.06,2.24,.53,1,2.2-8.25,11.08-16.37,22.25-24.9,33.13-2.11,2.69-4.65,4.06-8.19,4.05-19.43-.06-38.86,.02-58.29,.06-1.6,0-3.2,0-5-.93Z"/><path class="cls-6" d="M269.19,89.28c1.21,.88,2.37,1.7,3.51,2.56,5.47,4.16,7.03,9.14,4.6,14.62-2.34,5.28-8.73,8.4-14.79,7.21-7.14-1.41-11.33-7.35-9.68-13.68,.64-2.45,2.12-4.26,4.14-5.68,1.55-1.08,3.14-2.1,4.86-3.25-2.37-1.74-4.6-3.4-6.08-5.85-3.24-5.35-1.2-12.39,4.48-15.39,5.75-3.03,13.11-.88,15.67,4.59,1.85,3.95,.95,8.43-2.33,11.32-1.37,1.21-2.84,2.31-4.38,3.55Zm-11.91,13.06c.13,2.06,.61,4.45,2.08,6.55,3.23,4.6,10.06,4.7,12.7,.18,2.51-4.3,1.69-9.53-2.03-12.84-1.67-1.49-3.62-2.58-5.48-3.8-.99-.65-1.72-.37-2.57,.25-3.11,2.29-4.62,5.38-4.7,9.65Zm15.02-23.12c.16-4.29-1.92-7.87-5.12-8.85-5.08-1.55-9.26,2.7-8.44,8.59,.49,3.55,4.89,8.37,8.45,9.34,.95,.26,1.32-.42,1.77-.88,2.24-2.26,3.22-5.06,3.34-8.2Z"/><path class="cls-6" d="M310.27,90.35c-1.55,8.82-6.08,15.65-13.65,20.47-2.69,1.71-5.7,2.45-8.75,3.09-.47,.1-1.22,.49-1.42-.33-.21-.83,.63-.8,1.1-.94,8.76-2.64,13.79-8.8,16.37-17.29,.16-.53,.29-1.08,.39-1.63,.05-.3,0-.62,0-1.04-1.25-.01-2.11,.76-2.99,1.33-6.91,4.48-14.72-.04-16.84-6.75-3.03-9.62,3.91-19.32,13.63-18.75,5.52,.33,8.82,3.66,10.86,8.48,.53,1.24,.8,2.59,1.2,3.88,.43,3.15,.48,6.3,.11,9.46Zm-5.03-4.05c-.09-4.56-.5-8.91-2.9-12.78-2.51-4.04-7.74-4.64-10.8-1.33-4.29,4.66-3.27,15.18,1.91,18.78,3.21,2.23,6.61,1.75,10.03,.39,2.67-1.06,1.26-3.43,1.77-5.06Z"/><path class="cls-6" d="M241.07,92.06c-1.33,.74-2.22,1.13-2.99,1.67-7.17,5.07-15.99,.37-17.71-8.01-1.87-9.09,4.81-17.54,13.76-17.21,5.07,.18,8.48,2.95,10.62,7.38,4.36,9.04,1.89,21.79-5.63,29.83-3.95,4.21-8.61,7.09-14.33,8.1-.69,.12-1.79,.79-2.05-.3-.22-.92,.99-.79,1.59-.99,9.68-3.19,14.42-10.44,16.74-20.46Zm.4-6.46c-.04-4.28-.51-8.56-2.97-12.29-2.65-4.02-7.71-4.38-10.81-.9-4.06,4.56-3.06,14.87,1.89,18.46,3.34,2.42,6.97,1.98,10.44,.37,2.52-1.16,.99-3.69,1.45-5.64Z"/><path class="cls-11" d="M205.39,109.11c.43,2.05,2.26,1.98,3.72,2.4,1.23,.35,2.6,.22,3.69,1.31h-21.06c1.31-1.21,2.7-.99,3.91-1.22,3.28-.63,4.23-1.36,4.27-4.67,.12-9.97,.06-19.94,.07-29.92,0-2.41-1.14-3.65-3.57-3.83-.88-.07-1.94,.29-2.79-.89,3.3-1.29,6.86-1.56,9.89-3.28,2-.69,1.38,.89,1.38,1.7,.03,11.8,.01,23.59,.03,35.39,0,1.02-.23,2.09,.46,3.01Z"/><path class="cls-5" d="M205.39,109.11c-.69-.92-.46-1.99-.46-3.01-.01-11.8,0-23.59-.03-35.39,0-.82,.62-2.39-1.38-1.7,.91-1.11,1.57-1.05,1.85,.44,.09,.46,.03,.95,.03,1.43,0,12.74,0,25.49,0,38.23Z"/><path class="cls-5" d="M310.27,90.35c.37-3.16,.33-6.31-.11-9.46,.57,.09,.79,.48,.79,1,0,2.53,0,5.06-.01,7.59,0,.43-.26,.72-.68,.86Z"/><path class="cls-7" d="M176.88,211.83c.99,.03,2.26-.14,3.5,.35,.89,.35,1.51,.85,1.56,1.88,.05,1.01-.44,1.73-1.31,2.08-2.3,.92-4.8,.78-7.05,.29-1.38-.3-.38-2.36-.58-3.62-.15-.92,.52-1,1.22-.98,.8,.02,1.59,0,2.67,0Z"/><path class="cls-7" d="M176.22,207.05c-1.56-.19-3.54,.78-3.32-2.08,.12-1.59,.25-2.59,2.2-2.29,1.17,.18,2.4,0,3.58,.14,1.1,.12,2.05,.69,2.09,1.93,.04,1.35-.9,1.98-2.11,2.17-.86,.13-1.75,.1-2.43,.13Z"/><path class="cls-4" d="M306.03,248.57c0-1.04-.2-2.13,.05-3.1,.33-1.29-1.26-3.27,.94-3.82,2.98-.75,6.31,.56,7.13,2.63,1.09,2.76,1.08,5.66,.16,8.45-.74,2.22-6.15,3.94-7.93,2.67-.48-.34-.33-.86-.33-1.31-.01-1.84,0-3.68,0-5.52Z"/><path class="cls-7" d="M411.26,210.25c0-6.35,3.57-9.3,8.45-7.64,2.03,.69,3.12,2.11,3.61,4.1,.44,1.81,.39,3.64,.04,5.46-.65,3.41-2.51,4.95-5.97,4.94-3.29-.02-5.4-1.78-5.96-5.04-.14-.78-.14-1.59-.16-1.81Z"/><path class="cls-7" d="M181.85,248.93c0-5.56,2.36-8.16,6.79-7.83,2.8,.21,4.72,1.89,5.32,4.67,.43,1.99,.3,3.98-.13,5.95-.56,2.57-2.37,4.05-5.09,4.26-2.99,.22-5.32-1.02-6.28-3.38-.52-1.28-.66-2.63-.62-3.66Z"/><path class="cls-7" d="M336.86,248.9c-.02-6.02,3.34-8.94,8.21-7.51,1.95,.57,3.21,1.82,3.73,3.69,.7,2.52,.63,5.08-.26,7.55-.88,2.44-2.88,3.28-5.29,3.34-2.79,.07-4.92-1.17-5.79-3.38-.5-1.28-.65-2.63-.6-3.69Z"/><path class="cls-7" d="M222.49,203.33c1.05,2.82,2.06,5.53,3.07,8.24-.27,.12-.4,.23-.53,.23q-5.66,.15-3.87-5.28c.35-1.04,.5-2.17,1.33-3.2Z"/><path class="cls-7" d="M280.78,250.59q-6.25,.33-4.44-5.18c.35-1.05,.72-2.09,1.22-3.52,1.15,3.1,2.15,5.81,3.22,8.69Z"/><path class="cls-2" d="M254.61,383.42c-7.07,0-14.1,.03-21.13-.02-1.68-.01-2.82-1.59-2.24-3.41,1.71-5.32,3.88-10.48,6.72-15.31,1.1-1.88,4.56-1.88,6.07-.26,4.95,5.29,8.08,11.63,10.63,18.32,.07,.19-.02,.46-.04,.68Z"/><path class="cls-5" d="M257.28,102.33c.08-4.28,1.58-7.36,4.7-9.65,.84-.62,1.57-.91,2.57-.25,1.86,1.22,3.81,2.32,5.48,3.8,3.72,3.3,4.54,8.54,2.03,12.84-2.64,4.51-9.47,4.42-12.7-.18-1.47-2.1-1.95-4.49-2.08-6.55Z"/><path class="cls-5" d="M272.3,79.22c-.12,3.14-1.1,5.94-3.34,8.2-.46,.46-.82,1.15-1.77,.88-3.56-.98-7.95-5.79-8.45-9.34-.82-5.89,3.36-10.14,8.44-8.59,3.2,.98,5.27,4.56,5.12,8.85Z"/><path class="cls-5" d="M305.24,86.3c-.51,1.63,.9,4-1.77,5.06-3.41,1.36-6.82,1.84-10.03-.39-5.18-3.6-6.2-14.12-1.91-18.78,3.05-3.31,8.29-2.71,10.8,1.33,2.4,3.86,2.81,8.22,2.9,12.78Z"/><path class="cls-5" d="M241.48,85.6c-.45,1.95,1.07,4.47-1.45,5.64-3.47,1.6-7.11,2.05-10.44-.37-4.95-3.59-5.95-13.9-1.89-18.46,3.09-3.48,8.16-3.12,10.81,.9,2.46,3.73,2.94,8.01,2.97,12.29Z"/></svg>